<?xml version="1.0" standalone="no"?>
<!DOCTYPE svg PUBLIC "-//W3C//DTD SVG 20010904//EN"
 "http://www.w3.org/TR/2001/REC-SVG-20010904/DTD/svg10.dtd">
<svg version="1.0" xmlns="http://www.w3.org/2000/svg"
 width="2816.000000pt" height="1536.000000pt" viewBox="0 0 2816.000000 1536.000000"
 preserveAspectRatio="xMidYMid meet">

<g transform="translate(0.000000,1536.000000) scale(0.100000,-0.100000)"
fill="#000000" stroke="none">
<path d="M14020 11508 c0 -4 7 -8 15 -8 8 0 15 4 15 8 0 5 -7 9 -15 9 -8 0
-15 -4 -15 -9z"/>
<path d="M14063 11498 c7 -20 -10 -35 -25 -20 -5 5 -24 6 -44 2 -19 -5 -32 -4
-28 1 10 16 -8 9 -23 -8 -8 -10 -12 -12 -8 -5 9 17 -1 15 -26 -5 -21 -18 -197
-249 -235 -308 -10 -16 -26 -38 -35 -48 -8 -9 -79 -104 -155 -210 -77 -105
-214 -293 -304 -417 -90 -124 -314 -434 -498 -690 -184 -255 -370 -512 -412
-570 -42 -58 -191 -265 -332 -460 -140 -195 -412 -573 -605 -841 -192 -267
-355 -495 -362 -506 -14 -27 -14 -78 -1 -104 28 -51 -23 -49 1267 -49 1046 0
1201 2 1220 15 12 8 45 59 73 112 29 54 64 118 78 143 14 25 20 40 12 33 -15
-14 -43 -6 -33 11 5 8 3 8 -8 0 -20 -16 -52 -14 -38 2 8 9 0 12 -36 11 -35 -2
-47 -6 -51 -21 -6 -17 -7 -17 -15 -3 -5 9 -45 121 -88 250 l-79 235 30 29 c45
43 68 86 82 153 l12 61 281 129 c265 121 369 164 301 125 -25 -14 -30 -21 -27
-41 0 -4 -5 -10 -13 -15 -8 -5 -5 -8 12 -7 14 1 31 6 38 11 7 6 12 6 11 1 -4
-21 2 -28 11 -14 6 10 10 11 10 3 0 -7 7 -13 16 -13 9 0 12 5 8 13 -4 6 -4 9
1 5 4 -4 16 -3 26 3 16 8 19 6 19 -12 0 -15 4 -19 16 -15 14 5 15 4 4 -9 -13
-16 -14 -16 43 -19 33 -2 38 0 34 16 -3 10 -1 21 4 24 5 3 9 -10 9 -28 0 -18
4 -28 8 -23 9 12 52 15 52 3 0 -4 -5 -8 -11 -8 -5 0 -7 -5 -3 -11 5 -8 9 -8
14 1 5 8 9 7 14 -6 3 -9 5 -17 4 -18 -2 -1 -12 -8 -23 -16 -19 -14 -19 -14 -6
3 11 14 11 17 -2 17 -18 0 -30 -40 -16 -57 6 -6 8 -17 4 -22 -3 -7 0 -8 9 -5
11 4 16 0 17 -12 0 -18 1 -17 9 1 7 17 9 17 9 3 1 -10 7 -18 14 -18 9 0 9 -2
-1 -9 -10 -6 -10 -10 3 -21 13 -11 19 -8 17 11 -1 3 5 6 13 6 8 0 12 -4 9 -9
-3 -4 2 -8 10 -8 8 0 20 -8 25 -17 6 -10 11 -14 11 -9 0 5 -30 62 -67 128 -54
98 -70 119 -85 115 -12 -4 -18 -1 -15 6 3 7 9 11 15 10 6 -2 9 4 6 12 -4 8
-11 12 -17 8 -6 -3 -7 -1 -3 6 11 17 -21 62 -39 55 -8 -4 -12 -11 -9 -18 3 -6
-1 -3 -9 7 -8 9 -20 17 -26 17 -7 0 -9 5 -5 13 5 7 0 6 -11 -3 -12 -10 -16
-10 -11 -2 6 10 1 11 -21 6 -15 -4 -36 -11 -46 -16 -10 -5 -21 -8 -23 -6 -5 6
303 155 565 273 l213 96 37 -25 c20 -13 48 -30 64 -37 15 -7 27 -17 27 -23 0
-6 9 -112 20 -236 18 -209 19 -226 3 -235 -43 -26 -97 -83 -119 -127 -19 -37
-24 -63 -24 -118 0 -76 15 -123 56 -177 l26 -34 -58 -157 c-63 -173 -136 -334
-129 -289 3 22 1 27 -10 23 -8 -3 -17 -1 -20 4 -3 4 -19 2 -35 -6 -16 -9 -35
-12 -42 -8 -6 4 6 -24 27 -62 21 -38 45 -81 53 -96 7 -15 25 -37 39 -48 25
-20 36 -20 1225 -20 1319 0 1244 -4 1267 61 6 17 8 43 5 58 -6 24 -357 520
-973 1376 -134 187 -388 540 -564 785 -176 245 -378 525 -449 622 l-128 178
22 42 c31 59 32 173 2 238 -25 54 -72 103 -128 133 -33 17 -58 22 -129 22
l-87 1 -101 139 c-55 77 -116 157 -136 178 -19 20 -32 37 -27 37 5 0 2 5 -8
10 -9 6 -42 49 -74 97 -32 49 -80 113 -106 144 -44 52 -55 59 -101 60 -10 0
-21 7 -24 15 -3 7 -9 11 -14 8 -5 -3 -9 1 -10 8 0 7 -4 4 -9 -7 -5 -11 -9 -15
-9 -8 -1 6 -12 10 -27 8 -18 -2 -24 1 -20 12 4 9 2 11 -6 7 -6 -4 -18 2 -26
12 -12 16 -14 16 -9 2z m42 -148 c8 -16 35 -53 58 -82 47 -58 348 -467 415
-563 l41 -60 -20 -60 c-15 -44 -19 -73 -15 -110 l6 -50 -206 -145 c-274 -194
-398 -283 -405 -292 -3 -5 -27 1 -54 13 -97 43 -235 21 -308 -49 -16 -15 -41
-49 -55 -77 -48 -90 -32 -230 34 -306 12 -13 -18 -82 -227 -515 l-241 -499
-45 -3 c-108 -6 -217 -92 -247 -193 -21 -68 -20 -111 3 -178 l19 -55 -106
-116 c-59 -63 -165 -180 -236 -258 -71 -78 -130 -142 -132 -142 -2 0 -4 321
-4 713 l1 712 216 300 c118 165 365 507 548 760 182 253 426 591 540 750 225
314 282 391 305 415 8 9 31 39 50 68 19 29 38 52 42 52 4 0 14 -13 23 -30z
m636 -1097 c19 -10 69 -20 113 -23 l80 -5 128 -180 c163 -230 228 -320 502
-702 l225 -313 -2 -713 -2 -714 -46 41 c-195 176 -404 382 -401 395 13 81 13
123 -2 173 -19 68 -78 137 -138 163 -24 10 -44 20 -46 21 -2 1 -13 111 -26
244 l-22 242 21 10 c45 23 106 94 125 146 89 238 -159 456 -388 342 l-61 -31
-308 161 c-169 88 -310 164 -313 168 -3 4 -23 17 -45 29 -37 20 -40 25 -43 71
l-3 49 118 87 c209 153 488 354 494 355 3 1 21 -7 40 -16z m-608 -774 c67 -33
227 -115 355 -182 228 -119 232 -121 232 -152 l0 -32 -267 -122 c-148 -66
-271 -121 -275 -121 -3 0 -71 -31 -150 -69 -145 -69 -637 -294 -684 -311 -20
-8 -25 -7 -22 4 3 15 158 343 354 751 l110 230 56 6 c32 4 74 17 99 32 24 14
50 25 57 26 7 1 67 -26 135 -60z m-1947 -1379 l-1 -650 -467 0 c-258 0 -468 2
-468 4 0 3 138 197 307 433 168 235 376 526 462 646 85 119 158 217 161 217 4
0 6 -292 6 -650z m4207 85 c203 -286 403 -566 444 -622 40 -56 73 -104 73
-107 0 -3 -208 -6 -462 -6 l-463 0 0 651 c-1 642 0 650 18 627 11 -12 186
-257 390 -543z m-2198 365 c3 -5 1 -10 -4 -10 -6 0 -11 5 -11 10 0 6 2 10 4
10 3 0 8 -4 11 -10z m55 -100 c0 -5 -2 -10 -4 -10 -3 0 -8 5 -11 10 -3 6 -1
10 4 10 6 0 11 -4 11 -10z m-1184 -454 c17 -5 29 -33 64 -144 24 -75 62 -195
86 -266 24 -72 44 -131 44 -133 0 -2 -166 -3 -370 -3 -203 0 -370 3 -370 6 0
8 38 51 170 194 53 58 148 162 210 233 75 85 119 126 129 123 9 -2 25 -7 37
-10z m2271 -246 c70 -69 167 -162 216 -207 48 -45 87 -84 87 -87 0 -3 -162 -6
-360 -6 -224 0 -360 4 -360 10 0 9 32 99 51 145 5 11 28 69 51 129 l43 109 65
17 c36 9 68 17 72 16 4 -1 64 -57 135 -126z m-1832 -340 c3 -5 1 -10 -4 -10
-6 0 -11 5 -11 10 0 6 2 10 4 10 3 0 8 -4 11 -10z m9 -35 c-4 -8 -8 -15 -10
-15 -2 0 -4 7 -4 15 0 8 4 15 10 15 5 0 7 -7 4 -15z"/>
<path d="M14171 11194 c0 -11 3 -14 6 -6 3 7 2 16 -1 19 -3 4 -6 -2 -5 -13z"/>
<path d="M14173 9340 c0 -36 2 -50 4 -32 2 17 2 47 0 65 -2 17 -4 3 -4 -33z"/>
<path d="M13980 8948 c0 -36 4 -35 14 5 4 16 2 27 -4 27 -5 0 -10 -14 -10 -32z"/>
<path d="M14067 8449 c7 -7 15 -10 18 -7 3 3 -2 9 -12 12 -14 6 -15 5 -6 -5z"/>
<path d="M13803 8263 c-47 -79 -110 -206 -91 -182 12 15 42 15 35 1 -2 -4 12
-20 31 -37 20 -16 33 -25 29 -18 -4 6 -4 13 0 16 5 2 1 2 -7 0 -12 -3 -13 -2
-2 9 11 11 16 9 29 -7 15 -20 15 -20 8 3 -4 13 -2 22 4 22 6 0 10 -5 9 -11 -2
-6 3 -14 11 -17 8 -2 11 0 8 5 -3 5 0 10 8 10 10 0 11 -6 4 -24 -17 -44 0 -22
49 65 63 111 98 183 77 157 -16 -20 -17 -20 -42 10 -15 17 -27 28 -27 26 -1
-3 -12 -2 -25 2 -12 3 -20 10 -17 16 4 5 1 13 -5 17 -8 4 -9 3 -5 -4 9 -15
-16 -16 -31 -1 -7 7 -22 -10 -50 -58z"/>
<path d="M14406 8151 c-4 -5 -2 -12 3 -15 5 -4 12 -2 15 3 4 5 2 12 -3 15 -5
4 -12 2 -15 -3z"/>
<path d="M14375 8133 c-6 -14 -8 -15 -12 -4 -4 10 -10 8 -24 -10 -16 -20 -20
-22 -29 -9 -7 11 -10 11 -10 2 0 -7 -5 -10 -11 -6 -6 3 -15 1 -19 -7 -7 -10
-12 -10 -26 2 -16 13 -16 11 1 -21 32 -63 107 -190 111 -190 3 0 2 5 -1 10 -3
6 -1 11 4 11 6 1 16 3 21 4 6 1 14 3 20 4 5 0 27 17 47 36 22 21 45 34 55 32
12 -4 6 14 -23 67 -28 51 -43 70 -56 68 -9 -2 -22 3 -29 12 -11 15 -12 15 -19
-1z"/>
<path d="M13620 7937 c-36 -58 -108 -198 -97 -189 15 13 43 -1 33 -16 -3 -5 1
-12 9 -16 8 -3 15 -13 15 -22 0 -10 6 -14 14 -11 7 3 18 1 24 -5 14 -14 45 9
35 26 -4 7 -1 7 8 -1 12 -10 18 -10 29 0 10 9 11 9 6 0 -4 -7 -5 -13 -2 -13 2
0 24 35 49 78 54 95 72 129 62 119 -5 -4 -17 1 -28 10 -11 10 -17 12 -13 6 5
-9 2 -11 -9 -7 -9 4 -14 13 -11 20 3 8 0 11 -10 7 -8 -3 -14 1 -14 8 0 11 -3
11 -10 -1 -8 -13 -10 -13 -10 2 0 11 -5 15 -14 12 -8 -3 -23 -1 -33 5 -15 8
-22 5 -33 -12z m156 -85 c-14 -14 -17 -14 -14 -2 3 17 20 31 27 24 3 -2 -3
-12 -13 -22z"/>
<path d="M14455 7950 c-3 -5 -1 -10 4 -10 6 0 11 5 11 10 0 6 -2 10 -4 10 -3
0 -8 -4 -11 -10z"/>
<path d="M14427 7916 c-4 -10 -1 -13 9 -9 7 3 14 9 14 14 0 14 -17 10 -23 -5z"/>
<path d="M14564 7888 c7 -22 -3 -50 -15 -42 -5 3 -9 0 -9 -5 0 -6 -5 -11 -11
-11 -5 0 -7 5 -4 10 3 6 2 10 -4 10 -17 0 -24 -22 -10 -31 10 -6 11 -9 2 -9
-7 0 -13 -6 -13 -13 0 -8 -6 -14 -14 -14 -8 0 -11 8 -8 21 5 19 4 20 -13 6
-10 -8 -20 -13 -22 -12 -3 2 -8 0 -11 -4 -4 -4 0 -4 8 1 12 6 13 5 3 -5 -11
-12 -16 -11 -29 6 -14 18 -14 18 -3 -6 21 -44 101 -180 105 -180 3 0 0 9 -6
21 -12 21 4 54 21 44 4 -3 12 3 18 12 7 12 10 13 11 4 0 -8 6 -11 16 -7 8 3
12 2 9 -3 -3 -5 -1 -12 5 -16 5 -3 10 -2 10 3 0 5 9 12 20 15 14 4 20 0 20
-11 0 -11 3 -13 8 -6 4 6 15 10 24 9 15 -3 15 3 -6 43 -33 64 -109 191 -102
170z"/>
<path d="M14380 7840 c6 -11 13 -20 16 -20 2 0 0 9 -6 20 -6 11 -13 20 -16 20
-2 0 0 -9 6 -20z"/>
<path d="M11559 6750 c-189 -30 -341 -134 -382 -260 -21 -66 -22 -182 -1 -243
9 -26 36 -69 61 -97 63 -70 151 -110 351 -159 89 -22 179 -48 199 -58 102 -53
101 -156 -2 -207 -56 -28 -182 -33 -282 -11 -60 13 -198 70 -274 112 -3 2 -27
-44 -54 -103 -56 -122 -59 -111 45 -163 126 -64 256 -92 423 -92 191 1 322 46
416 145 63 67 91 141 91 240 0 190 -103 289 -365 352 -206 49 -276 73 -312
109 -58 58 -39 136 44 176 37 19 69 25 138 27 104 4 185 -13 283 -60 35 -16
65 -28 66 -26 4 4 96 209 96 212 0 11 -168 77 -228 90 -91 20 -238 28 -313 16z"/>
<path d="M15485 6749 c-148 -22 -313 -105 -407 -208 -68 -73 -100 -127 -134
-227 -24 -68 -27 -95 -27 -199 -1 -201 51 -334 177 -460 130 -129 278 -185
486 -185 199 0 336 49 455 163 l60 57 -45 40 c-25 23 -68 59 -97 81 l-52 40
-39 -38 c-22 -21 -66 -52 -99 -68 -54 -28 -66 -30 -168 -30 -100 0 -116 3
-173 29 -80 37 -161 122 -193 203 -33 83 -33 243 0 325 62 159 243 262 417
237 82 -11 137 -37 207 -93 l58 -48 57 50 c31 28 74 68 95 90 l38 39 -53 47
c-132 117 -373 183 -563 155z"/>
<path d="M17405 6749 c-148 -22 -271 -84 -381 -194 -94 -92 -141 -179 -169
-309 -36 -161 -1 -362 85 -493 86 -131 236 -233 396 -269 115 -25 313 -16 412
19 191 67 329 203 393 387 31 90 38 278 15 382 -59 266 -267 441 -566 478 -94
11 -100 11 -185 -1z m257 -271 c188 -86 272 -309 197 -525 -50 -146 -161 -230
-319 -240 -166 -12 -292 58 -365 201 -40 78 -40 79 -40 195 0 105 3 121 27
173 50 108 123 175 227 209 81 27 197 21 273 -13z"/>
<path d="M10000 6108 l0 -628 480 0 480 0 0 115 0 115 -337 2 -338 3 -3 143
-3 142 286 0 285 0 0 115 0 115 -282 2 -283 3 -3 133 -3 132 326 0 325 0 0
118 0 117 -465 1 -465 0 0 -628z"/>
<path d="M12380 6730 c0 -3 -1 -285 -4 -627 l-4 -623 144 0 144 0 0 180 0 180
159 0 c270 0 405 42 514 160 80 86 101 146 101 285 0 90 -4 120 -22 165 -48
121 -157 217 -290 258 -61 20 -95 22 -404 24 -186 2 -338 1 -338 -2z m664
-256 c86 -45 132 -150 106 -244 -15 -56 -80 -123 -135 -140 -22 -7 -111 -15
-197 -17 l-158 -5 0 217 0 216 173 -3 c151 -3 177 -6 211 -24z"/>
<path d="M16373 6732 l-63 -3 0 -624 0 -625 140 0 140 0 0 628 0 627 -77 0
c-43 0 -106 -1 -140 -3z"/>
<path d="M13971 6688 c-28 -63 -512 -1181 -518 -1195 -4 -10 28 -13 139 -13
l143 0 56 133 55 132 290 0 289 0 56 -130 55 -130 152 -3 c84 -1 152 -1 152 2
0 2 -66 152 -146 332 -81 181 -181 408 -224 504 -42 96 -101 228 -130 293
l-53 117 -149 0 -149 0 -18 -42z m264 -483 c48 -115 90 -216 92 -222 4 -10
-38 -13 -191 -13 -108 0 -196 2 -196 4 0 7 169 415 181 438 6 11 14 16 18 12
5 -5 47 -103 96 -219z"/>
<path d="M11916 5215 l-97 -105 68 0 68 0 133 105 134 105 -104 0 -104 0 -98
-105z"/>
<path d="M11742 4990 c-110 -29 -187 -75 -273 -160 -57 -56 -85 -94 -112 -150
-141 -297 -43 -638 232 -805 109 -66 168 -80 336 -80 165 0 224 13 331 74 220
126 337 386 291 646 -39 219 -177 381 -395 463 -94 35 -301 42 -410 12z m303
-134 c207 -55 345 -238 345 -456 0 -184 -94 -336 -257 -417 -65 -32 -84 -37
-171 -41 -165 -8 -283 37 -382 146 -166 180 -159 471 16 649 52 53 145 107
212 122 57 14 181 12 237 -3z"/>
<path d="M10000 4400 l0 -600 85 0 85 0 2 447 3 446 241 -299 c132 -164 294
-365 360 -446 l119 -147 68 -1 67 0 0 600 0 600 -80 0 -80 0 0 -445 c0 -245
-3 -445 -7 -444 -5 0 -91 104 -193 231 -102 127 -263 327 -358 445 l-173 213
-70 0 -69 0 0 -600z"/>
<path d="M12830 4400 l0 -600 80 0 80 0 2 433 3 432 214 -357 214 -358 43 0
42 0 209 360 c114 197 211 359 216 360 4 0 7 -196 7 -435 l0 -435 80 0 80 0 0
600 0 600 -68 0 c-53 0 -72 -4 -84 -17 -8 -10 -102 -169 -208 -353 -106 -184
-211 -366 -233 -404 l-39 -68 -61 103 c-87 151 -241 411 -347 587 l-92 152
-69 0 -69 0 0 -600z"/>
<path d="M14815 4979 c-4 -12 -125 -282 -270 -600 l-263 -579 88 0 87 0 65
148 65 147 328 0 328 0 67 -145 67 -145 86 -3 c48 -1 87 0 87 3 0 5 -115 258
-370 810 -48 105 -104 228 -125 275 -21 47 -42 91 -48 98 -6 8 -39 12 -98 12
-81 0 -88 -2 -94 -21z m124 -201 c117 -268 231 -531 231 -534 0 -2 -115 -4
-256 -4 -239 0 -255 1 -250 18 3 9 51 121 107 247 55 127 108 249 117 273 9
23 20 42 25 42 4 0 16 -19 26 -42z"/>
<path d="M15740 4400 l0 -602 323 4 322 4 85 29 c200 69 340 217 385 407 19
81 19 245 0 327 -22 92 -77 190 -146 259 -66 66 -139 109 -244 143 -66 21 -90
23 -397 27 l-328 4 0 -602z m612 449 c187 -39 317 -174 348 -362 38 -223 -71
-430 -267 -509 -54 -21 -75 -23 -294 -26 l-236 -3 -2 445 c-1 245 1 450 4 456
9 14 380 13 447 -1z"/>
<path d="M17387 4803 c-47 -109 -157 -355 -243 -548 -86 -192 -167 -374 -179
-402 l-24 -53 87 0 88 0 64 150 65 150 325 -3 324 -2 66 -147 65 -148 88 0
c48 0 87 2 87 4 0 2 -77 171 -171 377 -94 206 -214 469 -266 584 -52 116 -100
216 -105 223 -7 8 -40 12 -97 12 l-87 0 -87 -197z m313 -279 c66 -152 120
-278 120 -280 0 -2 -115 -4 -256 -4 -201 0 -255 3 -251 13 3 6 55 129 117 272
61 143 116 271 122 285 12 32 3 50 148 -286z"/>
<path d="M12770 3314 c0 -87 4 -133 10 -129 6 4 10 60 10 136 0 79 -4 129 -10
129 -6 0 -10 -52 -10 -136z"/>
<path d="M15360 3315 c0 -83 4 -135 10 -135 6 0 10 52 10 135 0 83 -4 135 -10
135 -6 0 -10 -52 -10 -135z"/>
<path d="M9990 3339 c0 -64 4 -98 10 -94 6 3 10 24 10 46 l0 39 50 0 50 0 0
-45 c0 -25 5 -45 10 -45 6 0 10 40 10 100 0 60 -4 100 -10 100 -5 0 -10 -20
-10 -45 l0 -45 -50 0 -50 0 0 45 c0 25 -4 45 -10 45 -6 0 -10 -40 -10 -101z"/>
<path d="M10182 3359 c3 -70 6 -83 27 -100 33 -27 66 -24 90 7 17 22 21 41 21
100 0 43 -4 74 -10 74 -6 0 -10 -31 -10 -74 0 -79 -13 -106 -50 -106 -33 0
-50 39 -50 112 0 43 -4 68 -11 68 -8 0 -10 -26 -7 -81z"/>
<path d="M10372 3343 l3 -98 41 -3 c22 -2 52 2 67 7 22 9 27 17 27 45 0 19 -4
37 -9 41 -5 3 -7 21 -4 40 8 50 -9 65 -74 65 l-54 0 3 -97z m107 63 c9 -11 10
-20 1 -36 -9 -17 -19 -20 -48 -18 -34 3 -37 6 -40 36 -3 31 -2 32 36 32 22 0
45 -6 51 -14z m11 -95 c15 -29 -13 -53 -59 -49 -33 3 -36 6 -39 36 -3 32 -3
32 42 32 35 0 48 -5 56 -19z"/>
<path d="M10630 3339 l0 -102 52 5 c40 4 57 11 75 32 27 32 30 83 8 125 -17
34 -33 41 -91 41 l-44 0 0 -101z m108 65 c34 -24 31 -95 -5 -124 -17 -13 -38
-20 -57 -18 -31 3 -31 4 -34 67 -2 35 -1 70 2 77 7 19 66 18 94 -2z"/>
<path d="M10825 3342 l0 -97 58 -3 c33 -2 57 1 57 7 0 5 -21 11 -47 13 -46 3
-48 4 -51 36 -3 32 -3 32 42 32 58 0 60 18 4 22 -40 3 -43 5 -46 36 l-3 32 50
0 c28 0 51 5 51 10 0 6 -26 10 -57 10 l-58 0 0 -98z"/>
<path d="M11071 3416 c-68 -73 -1 -206 85 -167 34 15 30 32 -5 18 -72 -27
-123 80 -65 137 18 19 65 21 82 4 9 -9 12 -8 12 4 0 35 -77 38 -109 4z"/>
<path d="M11239 3414 c-19 -20 -24 -36 -24 -76 0 -42 4 -53 28 -74 38 -32 72
-31 108 5 39 40 41 109 4 146 -33 34 -83 34 -116 -1z m103 -11 c25 -29 30 -59
14 -97 -36 -85 -145 -33 -122 58 13 53 76 75 108 39z"/>
<path d="M11410 3433 c0 -15 49 -186 55 -191 10 -11 22 14 40 81 10 37 21 67
25 67 4 0 15 -30 25 -67 18 -67 30 -92 40 -81 6 5 55 176 55 191 0 5 -4 6 -8
3 -5 -3 -17 -36 -27 -73 -21 -81 -30 -94 -39 -56 -20 78 -38 133 -46 133 -5 0
-16 -26 -25 -57 -9 -32 -18 -66 -21 -75 -10 -34 -21 -18 -39 57 -11 41 -23 75
-27 75 -4 0 -8 -3 -8 -7z"/>
<path d="M11701 3414 c-45 -58 -20 -154 45 -170 84 -21 137 104 73 172 -32 34
-90 33 -118 -2z m108 -20 c28 -36 27 -79 -4 -109 -40 -41 -86 -28 -104 28 -28
83 57 146 108 81z"/>
<path d="M11890 3340 c0 -55 4 -100 9 -100 6 0 11 15 13 33 5 48 40 49 70 3
13 -20 27 -36 31 -36 5 0 7 3 5 8 -2 4 -10 19 -17 34 -12 23 -11 29 3 43 22
22 21 78 -2 98 -12 11 -36 17 -65 17 l-47 0 0 -100z m99 66 c7 -8 11 -27 9
-43 -3 -25 -7 -28 -45 -31 l-43 -3 0 45 c0 46 0 46 34 46 18 0 39 -6 45 -14z"/>
<path d="M12072 3342 c-1 -67 2 -101 8 -97 6 3 10 19 10 34 0 37 28 63 41 39
16 -28 61 -79 66 -74 3 2 -11 28 -31 57 l-35 53 35 43 c19 24 31 43 25 43 -5
0 -30 -25 -55 -56 -49 -60 -53 -59 -59 16 -2 25 -4 -1 -5 -58z"/>
<path d="M12240 3340 c0 -60 4 -100 10 -100 6 0 10 40 10 100 0 60 -4 100 -10
100 -6 0 -10 -40 -10 -100z"/>
<path d="M12312 3346 c-1 -56 2 -97 8 -101 6 -4 10 21 10 69 0 42 3 76 8 76 4
-1 25 -30 47 -66 63 -103 65 -102 63 17 -2 89 -2 94 -5 31 -2 -40 -8 -72 -13
-70 -4 2 -28 32 -52 67 -25 36 -49 66 -54 68 -5 1 -10 -39 -12 -91z"/>
<path d="M12530 3420 c-41 -41 -38 -125 7 -160 29 -23 51 -25 88 -8 20 9 25
18 25 50 0 21 -4 38 -10 38 -5 0 -10 -16 -10 -35 0 -29 -4 -36 -26 -41 -64
-16 -113 87 -65 135 22 22 75 28 86 11 4 -6 11 -7 17 -4 18 11 -22 34 -59 34
-20 0 -41 -8 -53 -20z"/>
<path d="M12890 3430 c0 -5 11 -10 25 -10 25 0 25 -1 25 -90 0 -53 4 -90 10
-90 6 0 10 37 10 90 l0 90 30 0 c17 0 30 5 30 10 0 6 -28 10 -65 10 -37 0 -65
-4 -65 -10z"/>
<path d="M13053 3348 c-2 -96 8 -139 17 -78 4 29 10 36 31 38 21 2 31 -4 48
-34 25 -43 40 -40 17 3 -13 25 -13 32 -1 44 13 14 18 37 16 71 -2 31 -30 48
-80 48 l-47 0 -1 -92z m101 56 c32 -32 9 -71 -44 -76 l-35 -3 -3 48 -3 47 35
0 c19 0 42 -7 50 -16z"/>
<path d="M13252 3363 c-41 -110 -45 -123 -33 -123 6 0 13 11 17 25 6 22 11 25
55 25 44 0 51 -3 59 -25 5 -14 14 -25 19 -25 6 0 -2 30 -16 68 -14 37 -30 82
-36 100 -6 17 -16 32 -23 32 -7 0 -26 -35 -42 -77z m62 0 c9 -26 16 -48 16
-50 0 -2 -16 -3 -35 -3 -19 0 -35 5 -35 10 0 19 25 90 31 90 4 0 14 -21 23
-47z"/>
<path d="M13410 3340 l0 -100 50 0 c74 0 109 39 76 86 -10 13 -11 25 -5 35 28
44 -4 79 -72 79 l-49 0 0 -100z m107 64 c10 -27 -11 -49 -51 -52 -35 -3 -36
-2 -36 32 0 35 1 36 40 36 28 0 43 -5 47 -16z m8 -94 c10 -31 -12 -50 -56 -50
-38 0 -39 1 -39 35 0 35 0 35 44 35 36 0 46 -4 51 -20z"/>
<path d="M13610 3353 c-18 -49 -35 -94 -37 -100 -3 -7 0 -13 6 -13 6 0 13 11
17 25 6 22 11 25 55 25 44 0 51 -3 59 -25 5 -14 14 -25 20 -25 5 0 -2 30 -16
68 -15 37 -31 82 -37 100 -6 17 -16 32 -22 32 -6 0 -26 -39 -45 -87z m79 -30
c1 -8 -12 -13 -35 -13 -33 0 -36 2 -30 25 3 13 11 37 17 52 l11 28 18 -40 c10
-22 19 -46 19 -52z"/>
<path d="M13770 3430 c0 -5 14 -10 30 -10 l30 0 0 -69 c0 -78 -16 -105 -51
-83 -16 10 -19 9 -19 -3 0 -8 12 -18 27 -21 45 -12 63 23 63 117 l0 79 -40 0
c-22 0 -40 -4 -40 -10z"/>
<path d="M13915 3415 c-37 -37 -35 -106 4 -146 18 -17 40 -29 56 -29 40 0 85
50 85 95 0 42 -22 90 -45 99 -35 13 -76 6 -100 -19z m105 -15 c31 -31 27 -93
-6 -119 -15 -12 -32 -21 -39 -21 -7 0 -24 9 -39 21 -31 24 -36 81 -10 117 19
28 67 29 94 2z"/>
<path d="M14170 3340 c0 -60 4 -100 10 -100 6 0 10 16 10 35 0 32 3 35 28 35
23 0 33 -8 48 -35 10 -19 22 -35 26 -35 12 0 10 9 -9 40 -15 26 -15 29 0 45
23 22 22 78 -1 98 -12 11 -36 17 -65 17 l-47 0 0 -100z m99 66 c21 -26 9 -68
-22 -79 -44 -14 -57 -3 -57 48 0 44 0 45 34 45 18 0 39 -6 45 -14z"/>
<path d="M14350 3340 l0 -100 55 0 c30 0 55 5 55 10 0 6 -20 10 -45 10 -45 0
-45 0 -45 35 0 34 1 35 40 35 53 0 51 18 -2 22 -40 3 -43 5 -43 33 0 29 2 30
48 33 65 4 59 22 -8 22 l-55 0 0 -100z"/>
<path d="M14512 3338 c2 -89 2 -93 5 -30 2 39 7 72 11 72 4 0 20 -25 35 -56
15 -30 31 -53 35 -50 4 3 19 27 32 55 13 28 27 51 32 51 5 0 8 -29 7 -65 -1
-36 1 -68 4 -72 4 -3 7 39 7 95 0 56 -4 102 -8 102 -5 0 -23 -33 -41 -72 l-33
-73 -36 73 c-20 39 -40 72 -44 72 -4 0 -7 -46 -6 -102z"/>
<path d="M14755 3415 c-43 -42 -30 -140 22 -164 35 -16 57 -14 86 9 28 23 43
74 33 115 -16 65 -94 88 -141 40z m105 -15 c29 -29 27 -84 -5 -115 -29 -30
-45 -31 -79 -4 -31 24 -36 81 -10 117 19 28 67 29 94 2z"/>
<path d="M14920 3430 c0 -5 14 -10 30 -10 l30 0 0 -91 c0 -57 4 -88 10 -84 6
3 10 44 10 91 0 83 0 84 25 84 14 0 25 5 25 10 0 6 -28 10 -65 10 -37 0 -65
-4 -65 -10z"/>
<path d="M15105 3415 c-20 -19 -25 -34 -25 -72 1 -51 12 -73 47 -91 91 -49
169 95 91 168 -31 28 -83 26 -113 -5z m99 -11 c39 -38 30 -107 -16 -133 -23
-13 -30 -13 -52 -2 -29 16 -50 68 -40 97 19 52 75 72 108 38z"/>
<path d="M15520 3420 c-76 -76 11 -228 96 -166 26 20 13 30 -20 15 -40 -19
-80 14 -84 69 -5 65 44 101 99 72 15 -8 19 -7 19 4 0 31 -80 36 -110 6z"/>
<path d="M15702 3433 c-20 -8 -42 -59 -42 -98 0 -27 8 -44 29 -66 39 -38 74
-38 113 1 28 28 30 35 26 82 -4 38 -12 57 -28 70 -21 17 -70 23 -98 11z m92
-35 c23 -33 20 -87 -6 -115 -27 -28 -48 -29 -82 -2 -33 26 -37 88 -6 119 27
27 75 26 94 -2z"/>
<path d="M15880 3339 c0 -64 4 -98 10 -94 6 4 8 31 4 71 -4 36 -3 64 3 64 5 0
21 -25 36 -56 15 -30 31 -53 35 -50 4 3 19 27 32 55 13 28 27 51 31 51 5 0 10
-33 12 -72 3 -63 3 -59 5 30 1 56 -2 102 -6 102 -5 0 -21 -29 -37 -65 -15 -36
-31 -68 -35 -70 -5 -3 -23 26 -41 65 -17 38 -36 70 -40 70 -5 0 -9 -45 -9
-101z"/>
<path d="M16110 3366 c0 -59 4 -78 21 -100 24 -31 57 -34 89 -8 20 16 24 31
28 100 3 57 1 82 -7 82 -7 0 -11 -24 -11 -68 0 -73 -17 -112 -50 -112 -37 0
-50 27 -50 106 0 43 -4 74 -10 74 -6 0 -10 -31 -10 -74z"/>
<path d="M16300 3340 c0 -118 18 -136 22 -23 l3 77 43 -66 c70 -107 72 -107
72 11 0 115 -18 139 -22 30 l-3 -71 -49 71 c-26 39 -52 71 -57 71 -5 0 -9 -45
-9 -100z"/>
<path d="M16500 3340 c0 -60 4 -100 10 -100 6 0 10 40 10 100 0 60 -4 100 -10
100 -6 0 -10 -40 -10 -100z"/>
<path d="M16570 3340 l0 -100 39 0 c57 0 88 15 107 51 20 40 13 93 -17 125
-18 19 -33 24 -76 24 l-53 0 0 -100z m119 54 c44 -56 15 -125 -55 -128 l-39
-1 -3 78 -3 77 40 0 c31 0 44 -6 60 -26z"/>
<path d="M16809 3413 c-47 -122 -59 -158 -56 -167 3 -6 10 1 17 17 12 24 19
27 60 27 41 0 48 -3 60 -27 7 -16 14 -23 17 -17 5 15 -63 188 -76 192 -6 2
-16 -9 -22 -25z m43 -53 l16 -50 -40 0 c-28 0 -38 4 -34 13 2 6 10 29 17 50 7
20 15 37 19 37 3 0 13 -22 22 -50z"/>
<path d="M16950 3339 l0 -102 52 5 c68 7 98 39 98 104 0 64 -31 94 -100 94
l-50 0 0 -101z m114 62 c10 -11 18 -36 19 -57 1 -44 -38 -84 -82 -84 -28 0
-28 1 -34 73 -2 39 -3 75 0 80 9 16 80 7 97 -12z"/>
<path d="M17210 3340 l0 -100 39 0 c61 0 90 15 107 57 34 79 -10 143 -97 143
l-49 0 0 -100z m119 54 c45 -57 8 -134 -64 -134 l-35 0 0 80 0 80 39 0 c31 0
44 -6 60 -26z"/>
<path d="M17410 3340 c0 -60 4 -100 10 -100 6 0 10 40 10 100 0 60 -4 100 -10
100 -6 0 -10 -40 -10 -100z"/>
<path d="M17501 3416 c-69 -74 -3 -202 88 -170 22 8 27 16 29 52 2 25 -1 42
-7 42 -6 0 -11 -15 -11 -34 0 -52 -44 -63 -85 -21 -49 48 -20 135 45 135 16 0
32 -5 35 -10 4 -6 11 -8 16 -4 19 12 -14 34 -50 34 -27 0 -44 -7 -60 -24z"/>
<path d="M17670 3340 c0 -60 4 -100 10 -100 6 0 10 40 10 100 0 60 -4 100 -10
100 -6 0 -10 -40 -10 -100z"/>
<path d="M17730 3431 c0 -5 12 -11 28 -13 27 -3 27 -3 28 -86 1 -46 4 -86 8
-89 3 -4 6 35 6 85 l0 92 30 0 c17 0 30 5 30 10 0 6 -28 10 -65 10 -36 0 -65
-4 -65 -9z"/>
<path d="M17930 3413 c-6 -15 -22 -59 -36 -96 -25 -66 -27 -107 -3 -53 11 23
18 26 59 26 41 0 48 -3 60 -27 7 -16 14 -23 17 -17 5 15 -62 187 -75 192 -7 2
-17 -9 -22 -25z m39 -40 c7 -21 15 -44 17 -50 4 -9 -7 -13 -36 -13 -29 0 -40
4 -36 13 2 6 10 29 17 50 7 20 15 37 19 37 4 0 12 -17 19 -37z"/>
<path d="M18070 3340 l0 -100 55 0 c30 0 55 5 55 10 0 6 -20 10 -45 10 l-45 0
0 90 c0 53 -4 90 -10 90 -6 0 -10 -40 -10 -100z"/>
</g>
</svg>
