<?xml version="1.0" standalone="no"?>
<!DOCTYPE svg PUBLIC "-//W3C//DTD SVG 20010904//EN"
 "http://www.w3.org/TR/2001/REC-SVG-20010904/DTD/svg10.dtd">
<svg version="1.0" xmlns="http://www.w3.org/2000/svg"
 width="2816.000000pt" height="1536.000000pt" viewBox="0 0 2816.000000 1536.000000"
 preserveAspectRatio="xMidYMid meet">

<g transform="translate(0.000000,1536.000000) scale(0.100000,-0.100000)"
fill="#000000" stroke="none">
<path d="M13362 12939 c-77 -39 -122 -115 -122 -206 0 -49 29 -104 141 -270
114 -168 205 -329 341 -600 l110 -222 -204 -288 c-113 -158 -297 -418 -409
-578 -790 -1117 -712 -1007 -1376 -1940 -439 -618 -856 -1206 -1123 -1585
-106 -151 -253 -358 -325 -460 -205 -288 -590 -833 -1076 -1520 -146 -206
-393 -556 -549 -778 -1035 -1463 -1251 -1772 -1267 -1809 -10 -25 -14 -57 -11
-95 6 -78 44 -133 117 -170 l55 -28 2513 0 c2086 0 2519 2 2546 13 77 33 136
113 137 185 0 18 -20 93 -45 168 -49 148 -49 148 -35 139 6 -3 11 -16 11 -28
1 -19 2 -19 6 -3 4 15 7 16 15 5 7 -11 11 -11 15 -2 3 10 10 10 26 1 19 -10
20 -9 10 4 -11 12 -9 14 7 13 11 -1 23 -5 27 -10 5 -4 2 -5 -4 -1 -8 4 -13 1
-13 -7 0 -12 12 -14 54 -13 41 2 53 -1 49 -11 -4 -9 0 -11 11 -7 19 7 20 0 5
-29 -7 -12 -8 -18 -3 -14 19 18 173 302 166 307 -4 3 -7 11 -7 19 0 16 -32 24
-41 10 -9 -14 -24 -10 -24 7 0 8 -4 12 -10 9 -5 -3 -10 0 -10 7 0 11 -2 10 -9
0 -7 -11 -9 -10 -15 3 -6 17 -26 12 -26 -6 0 -6 5 -7 12 -3 7 4 8 3 4 -5 -6
-8 -12 -9 -20 -2 -9 7 -16 7 -23 0 -8 -8 -13 -7 -18 2 -5 8 -4 10 3 5 17 -10
15 3 -3 20 -13 14 -15 13 -15 -8 0 -18 -2 -20 -10 -8 -6 9 -10 11 -10 3 0 -19
-27 -4 -33 18 -3 10 -11 19 -19 19 -10 0 -10 -2 2 -10 8 -5 11 -12 7 -17 -14
-13 -27 20 -14 36 7 8 7 12 2 9 -6 -4 -17 -3 -25 2 -10 6 -21 3 -35 -8 -11 -9
-14 -10 -7 -2 19 22 14 31 -13 18 -13 -6 -22 -15 -19 -19 3 -5 -2 -6 -10 -3
-9 3 -16 1 -16 -5 0 -6 -5 -10 -12 -9 -7 2 -12 -1 -13 -7 0 -5 -6 -20 -13 -33
-10 -18 -11 -31 -2 -58 6 -19 10 -39 8 -45 -5 -15 -306 908 -333 1022 -5 22 4
36 63 95 106 106 171 261 172 407 0 48 0 48 48 69 91 40 599 272 864 394 147
68 272 124 278 124 6 0 22 7 36 16 13 9 27 14 30 11 4 -3 -12 -14 -34 -23 -21
-10 -45 -27 -52 -38 -12 -19 -11 -20 3 -8 8 7 18 9 21 4 3 -5 17 -8 31 -7 14
2 25 -1 25 -6 0 -5 -8 -9 -17 -9 -15 0 -16 -2 -3 -10 10 -6 16 -6 18 0 2 6 10
10 18 10 8 0 11 -6 7 -17 -5 -15 -3 -16 8 -6 17 17 29 16 29 -1 0 -8 5 -18 12
-22 7 -4 8 -3 4 4 -4 7 0 12 11 13 10 0 26 2 36 4 9 2 18 -1 18 -6 5 -37 20
-58 36 -52 11 4 14 2 9 -5 -4 -7 -2 -12 3 -12 6 0 11 5 11 11 0 5 13 15 30 20
26 10 28 13 15 26 -20 19 -19 22 4 16 25 -6 20 -32 -10 -50 -13 -8 -16 -12 -7
-9 56 17 101 27 105 23 2 -3 -10 -9 -26 -15 -17 -6 -31 -14 -31 -17 0 -3 5 -3
10 0 17 10 11 -7 -6 -20 -13 -9 -9 -10 20 -7 22 3 36 0 36 -7 0 -7 8 -8 25 -1
16 6 25 6 25 0 0 -6 5 -10 10 -10 6 0 10 7 10 15 0 8 8 15 18 15 15 0 15 -2 2
-10 -11 -8 -3 -9 27 -6 26 3 45 0 52 -8 8 -9 7 -13 -4 -13 -8 0 -15 4 -15 8 0
5 -7 6 -15 3 -8 -4 -13 -10 -10 -14 3 -5 1 -11 -5 -15 -5 -3 -10 0 -10 8 0 17
-44 11 -75 -9 -23 -16 -16 -18 19 -4 21 8 26 7 26 -6 0 -11 6 -13 23 -8 12 4
32 8 45 10 22 2 22 1 8 -20 -12 -19 -12 -23 0 -23 8 0 14 4 14 8 0 5 7 6 16 2
13 -5 13 -7 2 -14 -10 -7 -9 -9 4 -9 9 0 20 -5 24 -12 4 -7 3 -8 -4 -4 -18 11
-14 0 5 -15 9 -8 14 -9 11 -4 -4 6 -3 17 3 25 7 13 9 12 9 -2 0 -10 6 -19 13
-19 6 -1 17 -2 22 -4 6 -1 14 -3 19 -3 5 -1 1 -11 -9 -22 -23 -25 -33 -69 -12
-52 10 9 18 8 33 -4 18 -14 18 -15 -3 -4 -21 10 -23 8 -23 -13 0 -12 6 -29 13
-36 10 -10 9 -15 -4 -24 -9 -7 -14 -18 -11 -26 3 -8 -1 -12 -9 -9 -17 6 -19
30 -4 40 6 5 5 8 -3 8 -7 0 -15 -7 -18 -15 -4 -8 -10 -15 -16 -15 -5 0 -6 4
-3 10 3 6 -1 7 -9 4 -9 -3 -16 -14 -17 -23 0 -12 -2 -12 -9 4 -8 19 -9 19 -9
-3 -1 -21 2 -23 32 -18 17 3 26 3 20 0 -20 -9 -15 -24 5 -17 13 4 14 3 6 -6
-15 -17 -47 -21 -56 -7 -5 7 -8 4 -8 -8 0 -19 -2 -19 83 -1 10 2 15 0 12 -5
-3 -4 1 -10 7 -13 7 -2 9 -8 5 -13 -4 -5 -12 -3 -16 4 -11 18 -61 5 -54 -14 4
-11 16 -13 42 -9 37 5 78 -11 54 -22 -18 -7 -16 -24 1 -17 8 3 16 14 19 25 3
10 13 19 22 19 10 0 13 -5 9 -13 -4 -6 2 -4 13 5 25 23 36 23 58 -2 18 -20 35
-26 35 -12 0 4 -28 59 -63 122 -35 63 -122 224 -195 356 -73 133 -132 247
-132 254 0 10 -3 10 -14 1 -11 -10 -17 -8 -25 6 -9 16 -12 16 -21 3 -8 -13
-10 -13 -10 2 0 13 -7 16 -30 13 -16 -2 -30 0 -30 5 0 6 -10 6 -26 0 -14 -6
-33 -10 -42 -9 -9 0 37 27 103 61 112 56 825 387 1212 562 l171 78 54 -41 c30
-22 84 -54 120 -70 l65 -30 7 -93 c4 -51 25 -281 47 -511 21 -230 39 -422 39
-427 0 -5 -23 -22 -52 -36 -63 -32 -163 -130 -203 -198 -72 -123 -101 -285
-76 -418 17 -86 72 -197 135 -272 l53 -62 -55 -139 c-191 -490 -237 -607 -295
-755 -36 -91 -77 -192 -91 -225 -14 -33 -26 -78 -26 -100 0 -83 68 -172 147
-194 56 -16 5012 -15 5064 0 52 16 108 64 130 113 20 45 25 130 9 172 -9 24
-137 206 -630 904 -91 129 -280 397 -420 595 -140 198 -317 450 -395 560 -202
286 -402 569 -625 885 -277 392 -555 785 -765 1080 -100 140 -311 440 -470
665 -159 226 -422 599 -585 830 -163 231 -356 505 -429 609 l-134 189 36 71
c52 102 70 176 70 281 0 347 -280 613 -623 592 -47 -3 -97 -10 -112 -16 -25
-9 -29 -7 -61 37 -85 117 -994 1411 -1077 1533 l-93 137 123 143 c68 79 172
196 230 259 256 277 503 570 525 624 72 171 -106 353 -270 277 -49 -23 -97
-73 -205 -216 -117 -154 -221 -277 -375 -445 -180 -195 -243 -256 -254 -245
-5 6 -50 86 -101 179 -96 177 -256 442 -360 596 -44 66 -72 96 -106 116 -64
38 -135 42 -192 13z m840 -1856 c83 -117 295 -416 840 -1184 l167 -237 -25
-51 c-41 -86 -57 -174 -51 -281 3 -52 8 -104 12 -115 5 -18 -48 -62 -392 -317
-219 -162 -436 -321 -483 -353 -101 -69 -403 -294 -411 -307 -3 -5 -39 7 -80
27 -175 83 -361 84 -522 5 -302 -148 -430 -502 -287 -788 22 -43 55 -96 74
-119 20 -22 36 -44 36 -47 0 -3 -219 -470 -486 -1037 -267 -568 -491 -1047
-499 -1064 -14 -35 -41 -45 -117 -45 -118 0 -269 -71 -373 -175 -120 -120
-175 -254 -175 -430 0 -98 14 -163 52 -247 l25 -53 -130 -145 c-72 -80 -180
-202 -241 -271 -61 -69 -230 -259 -376 -423 l-265 -298 -3 1526 -2 1525 108
153 c60 84 218 308 352 498 307 435 1027 1449 1295 1825 67 94 298 420 515
725 216 305 480 677 585 825 105 149 259 367 342 485 163 232 229 314 220 270
-6 -24 -5 -24 8 -6 8 11 15 17 15 13 0 -3 14 -1 30 4 17 6 30 15 30 21 0 5 5
6 12 2 8 -5 9 -2 5 9 -4 12 -1 17 11 18 12 0 11 3 -6 10 -13 5 -20 14 -16 20
4 8 9 7 15 -2 5 -8 9 -10 9 -5 0 5 8 2 17 -5 14 -12 16 -12 8 0 -6 11 -4 13 7
9 12 -5 15 5 15 58 0 53 -2 62 -13 53 -8 -6 -14 -19 -15 -28 0 -12 -2 -12 -6
-2 -5 11 -7 11 -14 0 -5 -8 -9 -9 -9 -3 0 17 61 94 71 89 5 -4 6 2 2 12 -11
34 22 -7 119 -144z m-227 -24 c-20 -22 -33 -45 -29 -51 4 -7 3 -8 -4 -4 -7 4
-12 1 -12 -9 0 -9 -4 -14 -10 -10 -10 6 48 95 62 95 4 0 8 7 8 16 0 8 5 12 10
9 7 -4 -4 -23 -25 -46z m1481 -2241 c83 -44 164 -60 286 -57 l108 3 98 -140
c54 -76 175 -247 269 -379 226 -319 777 -1101 1026 -1455 111 -157 252 -357
314 -444 l113 -159 0 -1536 0 -1536 -92 91 c-51 50 -205 198 -343 329 -137
132 -309 297 -381 368 l-131 128 20 57 c26 74 28 239 4 331 -42 157 -162 302
-303 367 -44 19 -86 39 -94 43 -12 6 -21 69 -41 297 -22 239 -57 640 -63 718
-1 14 13 28 44 45 25 13 79 59 121 100 188 187 230 444 113 689 -48 100 -168
222 -264 269 -72 34 -193 63 -267 63 -108 -1 -242 -44 -337 -109 l-44 -30
-238 125 c-345 182 -864 458 -972 518 -51 28 -139 76 -195 106 l-102 56 -7 99
c-7 99 -6 100 19 119 15 11 67 53 117 93 138 110 1159 864 1165 861 3 -2 29
-15 57 -30z m-1391 -1608 c55 -30 114 -62 130 -72 l30 -19 -30 7 c-16 4 -36
12 -44 18 -9 7 -12 7 -9 0 4 -5 -7 -15 -23 -21 -25 -10 -29 -9 -19 1 8 10 7
15 -5 20 -8 3 -15 1 -15 -4 0 -5 -10 -12 -21 -15 -14 -5 -18 -10 -10 -14 7 -5
2 -12 -14 -19 -30 -14 -55 2 -47 28 5 13 3 13 -11 1 -21 -17 -22 -8 -1 13 12
13 20 14 37 5 22 -12 22 -12 3 10 -15 16 -22 18 -33 10 -10 -9 -13 -8 -13 2 0
11 -2 11 -10 -1 -9 -13 -10 -13 -11 0 -1 8 -1 20 0 26 1 7 -4 12 -11 11 -38
-1 -50 4 -44 19 3 8 2 12 -3 9 -5 -3 -12 3 -14 12 -3 10 -5 -51 -6 -134 -1
-139 1 -153 17 -154 16 -1 16 -2 0 -6 -10 -2 -18 -13 -18 -24 0 -12 7 -19 18
-18 11 0 13 2 4 6 -10 4 -7 9 8 20 23 16 35 10 44 -22 3 -12 4 -9 2 7 -3 27 8
36 54 44 8 2 20 11 27 20 7 10 13 13 13 6 0 -6 7 -9 17 -5 11 4 14 3 9 -5 -4
-7 -2 -12 3 -12 6 0 11 7 11 15 0 8 5 15 11 15 5 0 7 -5 3 -11 -4 -7 0 -10 11
-7 10 1 19 10 20 18 2 13 -11 15 -79 13 -63 -1 -75 0 -56 8 14 6 37 8 53 5 15
-3 27 -1 27 5 0 6 -5 7 -12 3 -7 -4 -8 -3 -4 5 5 8 0 10 -18 7 -15 -3 -24 -1
-21 5 4 5 11 7 16 4 5 -4 11 0 14 7 3 8 18 14 33 15 26 2 26 2 4 -8 -13 -5
-20 -14 -17 -19 5 -8 11 -7 21 1 9 7 14 8 14 1 0 -6 -6 -13 -12 -16 -7 -3 2
-4 20 -2 17 3 32 1 32 -4 0 -4 22 -2 50 5 29 8 52 9 56 4 3 -5 13 -5 24 1 13
7 20 6 23 -3 3 -6 6 2 6 19 1 26 -4 34 -29 44 -17 7 -33 17 -36 22 -9 14 70
-26 506 -256 228 -121 472 -249 542 -285 l128 -66 0 -73 c0 -72 0 -72 -32 -87
-18 -9 -267 -123 -553 -255 l-520 -239 -4 32 c-3 27 -4 29 -11 12 -8 -19 -9
-19 -9 2 -1 12 5 24 12 26 9 4 8 8 -3 16 -8 5 -17 6 -20 2 -8 -11 -59 -9 -57
4 1 5 -6 9 -15 9 -10 -1 -17 1 -16 5 2 19 -3 31 -12 26 -6 -4 -8 -11 -5 -16 4
-5 1 -9 -5 -9 -7 0 -9 8 -5 20 5 16 2 20 -15 20 -17 0 -21 5 -17 20 3 11 1 20
-4 20 -5 0 -9 -6 -9 -12 0 -9 -3 -10 -8 -2 -10 15 -76 12 -95 -5 -9 -7 -22
-11 -29 -8 -8 3 -6 6 5 6 10 1 16 5 13 10 -3 5 -15 7 -26 4 -12 -3 -18 -8 -15
-11 7 -7 -15 -32 -29 -32 -7 0 -6 4 2 9 8 4 12 12 10 16 -1 4 6 13 17 19 11 6
22 12 24 13 11 7 -25 33 -45 33 -13 0 -24 4 -24 9 0 5 9 7 19 4 15 -4 20 0 18
13 -2 29 -64 28 -71 0 -12 -43 -7 -176 7 -177 10 0 10 -2 0 -6 -8 -3 -13 -25
-13 -58 0 -46 3 -56 23 -66 12 -6 19 -8 15 -4 -4 4 0 14 10 22 9 8 11 11 3 7
-8 -4 -12 -2 -10 5 7 19 24 13 24 -8 1 -21 29 -53 39 -43 4 3 4 0 1 -9 -5 -13
5 -15 57 -13 l63 2 -155 -75 c-158 -76 -331 -157 -800 -373 -146 -67 -351
-162 -457 -211 -191 -89 -213 -97 -213 -80 0 11 194 429 522 1126 140 297 303
645 363 773 l109 232 66 0 c111 0 228 41 335 118 39 29 40 29 70 12 17 -9 75
-41 130 -70z m31 -128 c-4 -3 -11 0 -16 8 -15 24 -11 33 6 15 9 -9 13 -19 10
-23z m84 -42 c0 -5 -5 -10 -11 -10 -5 0 -7 5 -4 10 3 6 8 10 11 10 2 0 4 -4 4
-10z m-170 -60 c-8 -5 -22 -10 -30 -10 -13 0 -13 1 0 10 8 5 22 10 30 10 13 0
13 -1 0 -10z m-65 -21 c-4 -5 -12 -9 -18 -8 -9 0 -8 2 1 6 6 2 9 10 6 15 -4 7
-2 8 5 4 6 -4 9 -12 6 -17z m-45 -873 c0 -8 -4 -18 -10 -21 -5 -3 -10 3 -10
14 0 12 5 21 10 21 6 0 10 -6 10 -14z m172 -68 c-15 -15 -16 -32 -2 -23 6 3
10 1 10 -4 0 -6 -7 -11 -15 -11 -18 0 -20 36 -2 43 20 9 22 8 9 -5z m-36 -17
c0 -12 -6 -17 -18 -13 -18 4 -18 5 -1 18 10 7 18 14 18 14 1 0 1 -8 1 -19z
m-101 -81 c3 -5 1 -10 -4 -10 -6 0 -11 5 -11 10 0 6 2 10 4 10 3 0 8 -4 11
-10z m335 -8 c0 -4 -9 -8 -19 -8 -11 0 -17 4 -15 8 3 4 12 8 20 8 8 0 14 -4
14 -8z m-150 -12 c0 -5 -5 -10 -11 -10 -5 0 -7 5 -4 10 3 6 8 10 11 10 2 0 4
-4 4 -10z m-130 -65 c0 -8 -4 -15 -10 -15 -5 0 -7 7 -4 15 4 8 8 15 10 15 2 0
4 -7 4 -15z m280 10 c0 -7 -30 -13 -34 -7 -3 4 4 9 15 9 10 1 19 0 19 -2z
m-120 -59 c0 -2 -7 -7 -16 -10 -8 -3 -12 -2 -9 4 6 10 25 14 25 6z m4165 -509
c373 -531 805 -1143 1140 -1617 111 -157 277 -393 370 -525 93 -132 181 -258
197 -280 l29 -40 -977 -3 c-538 -1 -979 -1 -981 1 -5 6 -9 2777 -3 2777 3 0
104 -141 225 -313z m-8243 -1085 l3 -1382 -983 0 -983 0 44 63 c24 34 154 217
287 407 134 190 325 460 423 600 99 140 245 347 325 460 224 316 429 606 662
938 117 166 214 301 216 299 2 -2 5 -625 6 -1385z m3878 1008 c-8 -5 -19 -10
-25 -10 -5 0 -3 5 5 10 8 5 20 10 25 10 6 0 3 -5 -5 -10z m187 -96 c-3 -3 -12
-4 -19 -1 -8 3 -5 6 6 6 11 1 17 -2 13 -5z m-180 -10 c-3 -3 -12 -4 -19 -1 -8
3 -5 6 6 6 11 1 17 -2 13 -5z m94 -11 c13 -16 12 -17 -3 -4 -10 7 -18 15 -18
17 0 8 8 3 21 -13z m129 7 c0 -5 -5 -10 -11 -10 -5 0 -7 5 -4 10 3 6 8 10 11
10 2 0 4 -4 4 -10z m-115 -31 c4 7 12 7 25 -1 21 -14 17 -28 -8 -28 -15 0 -15
2 -2 11 12 8 9 9 -11 5 -19 -4 -29 -1 -33 10 -5 14 -4 15 8 5 9 -8 16 -9 21
-2z m189 -1 c-3 -4 0 -8 6 -8 6 0 8 -5 4 -11 -5 -8 -9 -7 -14 1 -4 7 -15 10
-24 7 -9 -4 -16 -2 -16 2 0 10 17 18 37 18 7 0 10 -4 7 -9z m-64 -12 c0 -3 -4
-8 -10 -11 -5 -3 -10 -1 -10 4 0 6 5 11 10 11 6 0 10 -2 10 -4z m40 -40 c0 -3
-4 -8 -10 -11 -5 -3 -10 -1 -10 4 0 6 5 11 10 11 6 0 10 -2 10 -4z m270 -396
c0 -5 -4 -10 -10 -10 -5 0 -10 5 -10 10 0 6 5 10 10 10 6 0 10 -4 10 -10z m24
-21 c-3 -5 -2 -9 3 -8 4 1 15 1 23 0 12 -1 12 -4 -3 -12 -22 -13 -37 -4 -37
22 0 11 5 17 10 14 6 -4 8 -11 4 -16z m150 -55 c3 -8 2 -12 -4 -9 -6 3 -10 10
-10 16 0 14 7 11 14 -7z m-2749 -554 c27 -6 52 -14 56 -18 4 -4 33 -92 64
-197 53 -179 97 -319 236 -754 33 -102 59 -188 59 -193 0 -4 -349 -8 -775 -8
-426 0 -775 3 -775 6 0 7 318 371 328 376 4 2 54 57 112 123 523 600 603 687
624 681 11 -4 43 -11 71 -16z m4793 -535 c148 -143 357 -343 464 -445 l196
-185 -384 -3 c-211 -1 -557 -1 -768 0 l-384 3 75 195 c40 107 112 297 160 421
l85 226 77 6 c42 4 101 15 131 26 30 11 61 19 67 18 7 -1 133 -119 281 -262z
m-3858 -285 c0 -5 -5 -10 -11 -10 -5 0 -7 5 -4 10 3 6 8 10 11 10 2 0 4 -4 4
-10z m30 -35 c11 -13 10 -14 -4 -9 -9 3 -16 10 -16 15 0 13 6 11 20 -6z m10
-141 c0 -8 -19 -13 -24 -6 -3 5 1 9 9 9 8 0 15 -2 15 -3z"/>
<path d="M14209 10840 c-19 -16 -37 -30 -41 -30 -5 0 -8 -8 -9 -17 0 -11 -3
-13 -6 -5 -7 17 -30 15 -30 -2 0 -8 5 -14 11 -13 13 2 17 -41 4 -49 -5 -3 -17
0 -26 7 -9 8 -6 1 7 -14 14 -15 30 -27 37 -27 7 0 16 -5 20 -12 4 -7 3 -8 -4
-4 -7 4 -12 3 -12 -2 0 -6 6 -12 14 -15 10 -4 13 -16 9 -41 -2 -20 0 -36 5
-36 15 0 21 -49 7 -60 -6 -5 -16 -6 -20 -2 -5 4 -5 2 -1 -5 3 -6 -2 -18 -12
-25 -11 -7 -18 -21 -16 -31 1 -11 0 -16 -3 -13 -3 3 -12 -2 -20 -12 -12 -16
-13 -16 -7 1 3 9 1 17 -5 17 -6 0 -11 -5 -11 -12 0 -6 -3 -8 -7 -5 -3 4 -12
-1 -19 -11 -12 -15 -15 -15 -24 -2 -8 13 -13 13 -31 2 -11 -7 -24 -11 -27 -7
-4 3 -1 9 5 13 7 4 -10 8 -37 8 -34 1 -47 -2 -43 -10 4 -6 -1 -5 -10 3 -9 7
-17 10 -17 5 0 -5 -5 -2 -10 6 -6 10 -10 -66 -10 -223 0 -159 3 -236 10 -232
6 4 7 11 4 17 -5 7 -1 9 9 5 16 -6 32 18 17 28 -4 3 -10 0 -12 -7 -3 -7 -7 -8
-11 -2 -3 5 3 16 15 23 11 7 17 8 14 2 -4 -5 -2 -12 4 -16 5 -3 10 -1 10 5 0
6 4 9 9 5 5 -3 12 -1 15 4 3 5 -2 12 -11 15 -13 5 -14 9 -4 19 7 7 15 12 19
13 44 5 60 54 19 54 -30 0 -64 34 -46 46 8 4 10 3 5 -4 -8 -14 40 -36 61 -28
11 5 11 10 3 27 -7 11 -9 23 -6 27 3 3 6 1 6 -4 0 -5 11 -11 23 -12 15 -1 24
4 24 13 0 8 -4 12 -8 9 -5 -3 -8 11 -7 29 1 28 4 33 20 29 10 -2 18 1 18 7 0
6 -8 11 -18 11 -9 0 -23 9 -29 20 -11 16 -10 18 2 14 8 -4 15 -10 15 -15 0 -5
10 -8 23 -6 19 2 22 -2 18 -28 -1 -16 -8 -33 -15 -37 -8 -6 -8 -8 2 -8 6 0 12
-7 12 -15 0 -9 6 -12 15 -9 8 4 15 10 15 16 0 5 -4 7 -8 4 -5 -3 -9 1 -9 9 0
9 5 11 11 7 6 -5 25 -8 43 -8 25 1 29 -2 20 -12 -8 -10 -7 -12 4 -10 8 2 17
11 22 22 6 16 10 16 24 5 12 -10 14 -10 9 -1 -5 8 -1 12 11 12 11 0 24 5 31
12 9 9 14 6 21 -13 7 -16 10 71 10 273 1 228 -2 297 -11 301 -10 4 -10 6 0 6
6 1 12 6 12 12 0 5 -4 7 -10 4 -5 -3 -10 -1 -10 4 0 21 -38 11 -71 -19z m-134
-450 c3 -5 1 -10 -4 -10 -6 0 -11 5 -11 10 0 6 2 10 4 10 3 0 8 -4 11 -10z m5
-28 c0 -5 -7 -17 -15 -28 -15 -19 -16 -19 -13 1 3 23 28 47 28 27z m70 4 c0
-3 -4 -8 -10 -11 -5 -3 -10 -1 -10 4 0 6 5 11 10 11 6 0 10 -2 10 -4z m-165
-186 c3 -5 1 -10 -4 -10 -6 0 -11 5 -11 10 0 6 2 10 4 10 3 0 8 -4 11 -10z
m-59 -96 c-5 -13 -10 -14 -18 -6 -6 6 -8 18 -4 28 5 13 10 14 18 6 6 -6 8 -18
4 -28z"/>
<path d="M14056 10737 c3 -10 9 -15 12 -12 3 3 0 11 -7 18 -10 9 -11 8 -5 -6z"/>
<path d="M14030 10450 c-9 -6 -10 -10 -3 -10 6 0 15 5 18 10 8 12 4 12 -15 0z"/>
<path d="M14063 10212 c0 -11 4 -19 8 -16 4 2 9 -1 11 -7 2 -7 10 -4 18 7 12
14 12 16 1 9 -9 -5 -18 -2 -27 10 -12 16 -13 16 -11 -3z"/>
<path d="M14135 10220 c3 -5 8 -10 11 -10 2 0 4 5 4 10 0 6 -5 10 -11 10 -5 0
-7 -4 -4 -10z"/>
<path d="M14020 10178 c0 -4 4 -8 9 -8 6 0 12 4 15 8 3 5 -1 9 -9 9 -8 0 -15
-4 -15 -9z"/>
<path d="M14044 10152 c5 -9 1 -15 -13 -19 -11 -3 -19 -9 -16 -13 6 -9 43 -2
50 10 3 4 -3 14 -12 21 -13 11 -15 11 -9 1z"/>
<path d="M13965 10070 c10 -11 20 -20 23 -20 3 0 -3 9 -13 20 -10 11 -20 20
-23 20 -3 0 3 -9 13 -20z"/>
<path d="M13925 10019 c-9 -14 -2 -20 14 -10 8 6 9 11 3 15 -6 3 -14 1 -17 -5z"/>
<path d="M14290 9915 c0 -14 -4 -25 -9 -25 -5 0 -18 -3 -28 -6 -16 -6 -16 -5
2 9 l20 16 -20 -4 c-11 -2 -26 -4 -32 -4 -15 -1 -16 -11 -4 -30 8 -12 14 -13
37 -3 29 14 44 8 27 -9 -6 -6 -9 -19 -6 -28 3 -11 2 -12 -4 -3 -7 9 -17 5 -39
-15 -27 -25 -29 -31 -20 -56 9 -24 15 -28 38 -23 36 7 48 -26 21 -57 -16 -19
-16 -20 0 -8 15 12 17 11 17 -8 0 -15 -4 -20 -12 -15 -10 6 -10 5 -2 -7 7 -8
14 -23 17 -34 2 -11 5 60 6 158 0 97 -1 177 -4 177 -3 0 -5 -11 -5 -25z m-16
-133 c3 -5 -1 -9 -9 -9 -8 0 -12 4 -9 9 3 4 7 8 9 8 2 0 6 -4 9 -8z"/>
<path d="M14145 9880 c3 -5 11 -10 16 -10 6 0 7 5 4 10 -3 6 -11 10 -16 10 -6
0 -7 -4 -4 -10z"/>
<path d="M14254 9854 c-18 -14 -18 -15 4 -4 12 6 22 13 22 15 0 8 -5 6 -26
-11z"/>
<path d="M14183 9826 c-3 -5 -1 -6 5 -2 7 4 12 3 12 -3 0 -5 -4 -13 -10 -16
-5 -3 -10 -11 -10 -16 0 -14 49 24 50 38 0 14 -39 13 -47 -1z"/>
<path d="M14251 9721 c-7 -5 -11 -13 -7 -19 3 -6 -2 -13 -11 -15 -14 -4 -12
-5 5 -6 12 0 25 6 28 14 9 22 1 36 -15 26z"/>
<path d="M14200 9705 c-14 -8 -20 -14 -14 -15 5 0 19 7 30 15 24 18 16 19 -16
0z"/>
<path d="M13980 9628 c0 -4 4 -8 9 -8 6 0 12 4 15 8 3 5 -1 9 -9 9 -8 0 -15
-4 -15 -9z"/>
<path d="M14188 9613 c7 -3 16 -2 19 1 4 3 -2 6 -13 5 -11 0 -14 -3 -6 -6z"/>
<path d="M13977 9554 c3 -8 10 -13 15 -12 16 6 14 21 -4 24 -11 1 -15 -3 -11
-12z"/>
<path d="M14060 9528 c15 -16 17 -24 8 -30 -17 -10 1 -9 27 2 17 7 17 9 3 9
-10 1 -22 10 -28 21 -6 11 -15 20 -21 20 -5 0 -1 -10 11 -22z"/>
<path d="M14081 9468 c-11 -11 -18 -25 -15 -30 6 -10 25 -11 22 0 -1 4 3 17
10 30 16 28 9 28 -17 0z"/>
<path d="M14091 9426 c-9 -10 -8 -15 3 -19 8 -3 17 1 20 8 7 20 -9 28 -23 11z"/>
<path d="M14140 9430 c0 -5 5 -10 11 -10 5 0 7 5 4 10 -3 6 -8 10 -11 10 -2 0
-4 -4 -4 -10z"/>
<path d="M14080 9393 c1 -28 40 -39 47 -13 4 12 3 12 -5 2 -7 -11 -12 -10 -26
3 -9 9 -16 13 -16 8z"/>
<path d="M14292 9280 c0 -14 2 -19 5 -12 2 6 2 18 0 25 -3 6 -5 1 -5 -13z"/>
<path d="M13870 9269 c0 -5 5 -7 10 -4 6 3 10 8 10 11 0 2 -4 4 -10 4 -5 0
-10 -5 -10 -11z"/>
<path d="M14292 9225 c0 -16 2 -22 5 -12 2 9 2 23 0 30 -3 6 -5 -1 -5 -18z"/>
<path d="M13905 9180 c-3 -5 1 -10 9 -10 8 0 18 5 21 10 3 6 -1 10 -9 10 -8 0
-18 -4 -21 -10z"/>
<path d="M13980 9179 c0 -5 10 -9 22 -9 12 0 18 3 14 7 -10 11 -36 12 -36 2z"/>
<path d="M14289 9123 c-1 -38 -2 -76 -2 -85 0 -10 -4 -18 -8 -18 -5 0 -9 5 -9
11 0 5 -4 8 -9 4 -5 -3 -12 -1 -16 4 -3 6 4 8 15 6 11 -2 18 0 15 6 -4 5 -10
7 -15 4 -4 -3 -11 1 -13 7 -4 10 -6 10 -6 1 -1 -7 -8 -13 -17 -13 -8 0 -13 -4
-10 -9 4 -5 -4 -7 -16 -3 -16 4 -19 2 -13 -8 6 -9 4 -11 -6 -5 -19 13 -64 10
-62 -3 2 -6 -6 -14 -17 -17 -11 -4 -20 -11 -20 -17 0 -6 6 -5 16 3 13 10 17
10 25 -2 7 -11 9 -10 10 6 1 17 2 16 9 -5 4 -14 8 -19 9 -12 1 15 31 16 31 1
0 -5 6 -7 13 -3 9 6 9 5 0 -7 -9 -11 -8 -18 3 -33 7 -10 11 -23 7 -29 -3 -6
-1 -7 5 -3 6 3 17 -3 25 -15 8 -11 23 -22 33 -23 10 -2 21 -11 25 -22 4 -10 8
63 8 164 1 100 -1 182 -4 182 -3 0 -6 -30 -6 -67z m-52 -128 c0 -8 -4 -12 -9
-9 -5 3 -6 10 -3 15 9 13 12 11 12 -6z"/>
<path d="M14037 9173 c-3 -5 0 -17 4 -28 9 -19 9 -19 5 2 -2 12 1 24 8 27 8 3
8 5 -1 5 -6 1 -14 -2 -16 -6z"/>
<path d="M13943 9154 c0 -7 4 -11 8 -8 4 2 10 -2 12 -8 4 -10 6 -10 6 0 1 7 6
10 11 7 6 -3 10 -1 10 4 0 6 -3 11 -7 12 -5 0 -15 2 -24 4 -9 1 -16 -3 -16
-11z"/>
<path d="M14142 9140 c0 -14 2 -19 5 -12 2 6 2 18 0 25 -3 6 -5 1 -5 -13z"/>
<path d="M14103 9143 c-19 -4 -23 -11 -22 -41 0 -29 2 -33 8 -17 5 11 7 23 5
27 -7 12 14 19 22 7 5 -8 3 -9 -6 -4 -9 6 -11 4 -6 -4 10 -15 19 -7 21 19 1
11 1 19 1 19 -1 -1 -11 -4 -23 -6z"/>
<path d="M14023 9088 c-3 -6 -1 -8 5 -4 5 3 12 2 14 -4 2 -5 9 -6 16 -1 10 6
9 10 -7 14 -12 3 -24 0 -28 -5z"/>
<path d="M14100 9080 c0 -5 5 -10 11 -10 5 0 7 5 4 10 -3 6 -8 10 -11 10 -2 0
-4 -4 -4 -10z"/>
<path d="M14135 9070 c-3 -5 -1 -10 4 -10 6 0 11 5 11 10 0 6 -2 10 -4 10 -3
0 -8 -4 -11 -10z"/>
<path d="M14080 9019 c0 -5 5 -7 10 -4 6 3 10 8 10 11 0 2 -4 4 -10 4 -5 0
-10 -5 -10 -11z"/>
<path d="M14090 8950 c-13 -8 -12 -10 3 -10 9 0 17 5 17 10 0 12 -1 12 -20 0z"/>
<path d="M14145 8949 c-4 -6 -5 -12 -2 -15 2 -3 7 2 10 11 7 17 1 20 -8 4z"/>
<path d="M13872 8663 c-1 -53 2 -83 9 -83 5 0 8 4 5 9 -9 14 20 21 34 8 10 -9
11 -9 6 1 -4 6 -3 12 3 12 5 0 12 -5 14 -10 3 -6 4 -5 3 2 -2 7 -9 14 -17 14
-8 1 -21 2 -29 3 -9 0 -16 11 -17 22 -2 17 1 19 10 10 16 -16 24 -14 30 12 6
20 5 20 -7 4 -17 -23 -33 -6 -39 43 -2 19 -5 -2 -5 -47z"/>
<path d="M13966 8611 c9 -9 34 -9 34 -1 0 5 -9 8 -20 7 -10 -1 -17 -3 -14 -6z"/>
<path d="M13950 8580 c-8 -5 -10 -10 -5 -10 6 0 1 -7 -9 -15 -18 -14 -18 -15
-2 -15 10 0 14 -4 10 -12 -4 -7 -3 -8 4 -4 6 4 9 13 5 21 -3 11 -1 13 10 9 8
-3 18 -1 22 5 3 7 0 8 -9 5 -9 -3 -16 -2 -16 4 0 6 6 13 13 15 6 3 8 6 2 6 -5
0 -17 -4 -25 -9z"/>
<path d="M13899 8563 c-12 -16 -12 -17 2 -6 9 7 20 9 24 5 5 -4 5 -1 1 6 -9
16 -11 15 -27 -5z"/>
<path d="M13870 8545 c0 -14 4 -25 9 -25 4 0 6 11 3 25 -2 14 -6 25 -8 25 -2
0 -4 -11 -4 -25z"/>
<path d="M14020 8551 c0 -7 -5 -9 -12 -5 -7 5 -8 3 -3 -6 6 -9 4 -12 -6 -8
-10 4 -15 -1 -16 -13 -2 -17 0 -18 13 -4 9 8 20 12 26 9 6 -4 6 -10 -1 -17 -7
-7 -5 -14 7 -23 15 -12 15 -13 -8 -14 -23 -1 -23 -2 -5 -10 11 -5 16 -9 10
-10 -5 0 1 -7 15 -15 14 -8 19 -14 11 -15 -8 0 -12 -2 -9 -5 7 -8 110 56 126
78 7 9 18 15 23 11 5 -3 8 0 7 8 -4 19 -31 27 -47 14 -12 -9 -13 -8 -6 3 6 10
4 12 -6 6 -35 -20 -39 -27 -28 -49 10 -20 9 -20 -5 -2 -9 10 -13 23 -10 27 5
8 -9 13 -28 10 -4 0 -4 7 -1 17 3 9 3 14 -2 10 -4 -4 -8 -17 -9 -29 -1 -22
-26 -41 -26 -19 0 6 5 8 12 4 7 -5 8 -3 2 7 -4 8 -9 20 -10 27 -3 18 -14 29
-14 13z"/>
<path d="M14080 8544 c0 -8 5 -12 10 -9 6 4 8 11 5 16 -9 14 -15 11 -15 -7z"/>
<path d="M14288 7868 c-2 -13 -1 -36 3 -53 5 -24 7 -20 8 23 1 54 -4 68 -11
30z"/>
<path d="M14216 7848 c3 -5 10 -6 15 -3 13 9 11 12 -6 12 -8 0 -12 -4 -9 -9z"/>
<path d="M14174 7842 c4 -3 14 -7 22 -8 9 -1 13 0 10 4 -4 3 -14 7 -22 8 -9 1
-13 0 -10 -4z"/>
<path d="M14210 7816 c-6 -9 -10 -21 -7 -28 4 -9 6 -7 6 4 1 9 7 18 14 21 6 2
9 7 6 11 -3 4 -12 0 -19 -8z"/>
<path d="M14232 7808 c-17 -17 -15 -28 4 -28 9 0 12 -5 8 -12 -4 -7 -3 -8 5
-4 6 4 9 12 6 17 -4 5 -1 9 4 9 10 0 15 -14 12 -33 -1 -5 3 -6 8 -2 6 3 11
-16 14 -47 l3 -53 2 63 c1 40 -2 61 -8 57 -5 -3 -10 3 -10 15 0 13 -4 19 -11
14 -6 -3 -14 -2 -18 5 -5 8 -10 8 -19 -1z"/>
<path d="M14030 7170 c-10 -6 -11 -10 -2 -10 6 0 12 -7 12 -16 0 -18 22 -14
28 6 3 7 0 10 -6 6 -6 -3 -12 0 -14 9 -2 10 -7 12 -18 5z"/>
<path d="M14005 7100 c4 -6 11 -8 16 -5 14 9 11 15 -7 15 -8 0 -12 -5 -9 -10z"/>
<path d="M13980 6938 c0 -4 4 -8 9 -8 6 0 12 4 15 8 3 5 -1 9 -9 9 -8 0 -15
-4 -15 -9z"/>
<path d="M13877 6853 c-12 -12 -7 -22 8 -17 8 4 15 10 15 15 0 11 -14 12 -23
2z"/>
<path d="M13901 6833 c-7 -8 -11 -16 -8 -19 2 -2 10 2 17 11 17 20 9 27 -9 8z"/>
<path d="M13886 6717 c-16 -12 -16 -13 3 -14 12 -1 21 4 21 13 0 17 -2 17 -24
1z"/>
<path d="M14264 6719 c-2 -4 0 -10 6 -14 5 -3 10 -3 11 2 1 4 5 -3 9 -17 8
-24 8 -24 9 6 1 21 -4 31 -14 31 -9 0 -18 -4 -21 -8z"/>
<path d="M14292 6615 c0 -16 2 -22 5 -12 2 9 2 23 0 30 -3 6 -5 -1 -5 -18z"/>
<path d="M13905 6590 c-3 -6 1 -7 9 -4 18 7 21 14 7 14 -6 0 -13 -4 -16 -10z"/>
<path d="M13884 6532 c1 -26 -3 -50 -9 -54 -6 -5 -3 -8 7 -8 9 0 19 -6 22 -12
3 -7 4 -4 3 7 -1 12 3 19 11 18 6 -2 12 2 12 7 0 6 -6 10 -12 10 -9 0 -8 4 2
10 12 8 11 10 -7 10 -21 0 -25 13 -10 36 4 7 1 14 -7 17 -10 4 -13 -6 -12 -41z"/>
<path d="M14263 6529 c-2 -23 3 -25 10 -4 4 8 3 16 -1 19 -4 3 -9 -4 -9 -15z"/>
<path d="M14257 6474 c6 -15 23 -19 23 -5 0 5 -7 11 -14 14 -10 4 -13 1 -9 -9z"/>
<path d="M14266 6401 c-4 -7 -5 -15 -2 -18 9 -9 19 4 14 18 -4 11 -6 11 -12 0z"/>
<path d="M14180 6394 c0 -12 26 -30 38 -26 23 7 13 32 -13 32 -14 0 -25 -3
-25 -6z"/>
<path d="M13930 6388 c-2 -5 -3 -14 -4 -20 0 -7 -10 -13 -21 -13 -11 0 -21 -8
-23 -18 -5 -25 26 -33 46 -12 9 10 11 15 5 11 -16 -9 -17 6 -2 21 6 6 9 17 6
25 -3 7 -6 10 -7 6z"/>
<path d="M13980 6379 c0 -5 5 -7 10 -4 6 3 10 8 10 11 0 2 -4 4 -10 4 -5 0
-10 -5 -10 -11z"/>
<path d="M14125 6342 c-14 -14 -25 -30 -24 -36 0 -8 2 -8 5 0 3 7 14 10 24 7
11 -3 20 0 20 6 0 6 -8 8 -17 4 -12 -4 -15 -3 -8 4 6 6 21 14 35 18 22 7 23 6
11 -9 -12 -14 -12 -16 4 -9 15 5 17 3 12 -11 -4 -9 -3 -15 2 -11 5 3 12 1 16
-5 11 -19 25 0 24 33 -1 26 -3 27 -6 8 l-5 -24 -11 23 c-16 31 -52 32 -82 2z"/>
<path d="M14080 6334 c0 -8 5 -12 10 -9 6 4 8 11 5 16 -9 14 -15 11 -15 -7z"/>
<path d="M14262 6316 c1 -19 5 -33 8 -31 11 7 10 65 -1 65 -5 0 -9 -15 -7 -34z"/>
<path d="M14020 6336 c0 -2 7 -9 15 -16 13 -11 14 -10 9 4 -5 14 -24 23 -24
12z"/>
<path d="M13935 6310 c-3 -6 1 -7 9 -4 18 7 21 14 7 14 -6 0 -13 -4 -16 -10z"/>
<path d="M14286 6305 c4 -8 8 -15 10 -15 2 0 4 7 4 15 0 8 -4 15 -10 15 -5 0
-7 -7 -4 -15z"/>
<path d="M14161 6254 c0 -11 3 -14 6 -6 3 7 2 16 -1 19 -3 4 -6 -2 -5 -13z"/>
<path d="M13980 6077 c0 -7 7 -22 15 -33 13 -17 14 -16 4 14 -11 33 -19 41
-19 19z"/>
<path d="M13981 5034 c0 -11 3 -14 6 -6 3 7 2 16 -1 19 -3 4 -6 -2 -5 -13z"/>
<path d="M14135 4990 c-3 -5 -1 -10 4 -10 6 0 11 5 11 10 0 6 -2 10 -4 10 -3
0 -8 -4 -11 -10z"/>
<path d="M14180 4934 c0 -8 5 -12 10 -9 6 4 8 11 5 16 -9 14 -15 11 -15 -7z"/>
<path d="M14248 4943 c7 -3 16 -2 19 1 4 3 -2 6 -13 5 -11 0 -14 -3 -6 -6z"/>
<path d="M14208 4903 c7 -3 16 -2 19 1 4 3 -2 6 -13 5 -11 0 -14 -3 -6 -6z"/>
<path d="M14340 4900 c-13 -8 -13 -10 2 -10 9 0 20 5 23 10 8 13 -5 13 -25 0z"/>
<path d="M14270 4850 c-13 -9 -13 -10 0 -10 8 0 22 5 30 10 13 9 13 10 0 10
-8 0 -22 -5 -30 -10z"/>
<path d="M14368 4853 c7 -3 16 -2 19 1 4 3 -2 6 -13 5 -11 0 -14 -3 -6 -6z"/>
<path d="M14463 4806 c-3 -5 -1 -6 5 -2 5 3 12 2 14 -3 1 -5 9 -3 15 4 10 11
9 13 -8 12 -11 -1 -23 -6 -26 -11z"/>
<path d="M13571 4697 c-23 -42 -39 -82 -35 -88 4 -7 3 -9 -3 -6 -6 4 -25 -21
-43 -56 -18 -34 -41 -78 -52 -97 -11 -19 -13 -27 -5 -17 11 13 17 15 22 6 4
-6 2 -15 -5 -19 -8 -5 -5 -9 9 -13 20 -5 26 3 21 28 -1 6 4 5 11 -2 6 -6 18
-9 26 -6 12 5 12 7 1 15 -10 7 -10 11 0 15 6 2 12 11 12 19 0 8 9 14 19 14 11
0 23 5 26 10 3 6 1 10 -6 10 -7 0 -10 3 -7 6 4 3 16 0 28 -6 17 -9 21 -9 19 2
-3 27 1 39 13 32 7 -4 8 -3 4 5 -4 6 -12 9 -17 6 -5 -4 -9 1 -9 10 0 9 -4 13
-10 10 -6 -3 -7 1 -4 9 3 9 10 13 15 10 5 -3 9 0 9 5 0 6 -4 11 -10 11 -5 0
-2 9 7 19 17 20 39 19 27 -1 -5 -7 -2 -8 5 -4 7 5 10 14 7 22 -3 8 1 14 9 14
8 0 15 5 15 10 0 7 -6 7 -20 0 -18 -9 -20 -8 -20 15 0 26 24 35 33 13 4 -10 6
-10 6 0 1 7 5 11 9 8 4 -2 9 4 9 15 2 21 -12 26 -23 7 -5 -7 -11 -5 -21 7 -7
11 -13 15 -14 9 0 -5 -4 0 -8 10 -6 16 -15 6 -50 -57z m46 -19 c-3 -8 -6 -5
-6 6 -1 11 2 17 5 13 3 -3 4 -12 1 -19z"/>
<path d="M14450 4720 c-9 -6 -10 -10 -3 -10 7 0 10 -7 6 -17 -5 -14 -3 -15 6
-7 19 17 10 46 -9 34z"/>
<path d="M13630 4563 c8 -12 18 -19 22 -17 4 3 8 -2 8 -11 0 -9 5 -13 10 -10
8 5 8 11 1 19 -6 7 -7 17 -3 21 4 5 1 5 -6 1 -7 -4 -20 -2 -29 6 -15 12 -15
11 -3 -9z"/>
<path d="M13720 4561 c0 -20 17 -31 37 -24 8 3 7 10 -5 24 -21 24 -32 24 -32
0z"/>
<path d="M13700 4543 c0 -13 5 -23 10 -23 13 0 13 11 0 30 -8 12 -10 11 -10
-7z"/>
<path d="M14335 4550 c-13 -6 -15 -9 -5 -9 8 0 22 4 30 9 18 12 2 12 -25 0z"/>
<path d="M14389 4543 c-10 -12 -10 -14 -1 -9 7 4 12 1 12 -8 0 -9 5 -16 11
-16 8 0 7 -6 -2 -17 -12 -14 -12 -16 1 -11 8 2 17 15 18 27 3 17 0 21 -9 15
-9 -5 -11 -2 -6 9 9 23 -8 30 -24 10z"/>
<path d="M14296 4541 c-3 -5 1 -11 9 -14 9 -4 12 -1 8 9 -6 16 -10 17 -17 5z"/>
<path d="M14231 4523 c3 -20 -2 -25 -16 -13 -13 11 69 -147 100 -193 12 -17
13 -17 20 0 5 10 9 20 9 23 1 3 5 11 9 18 5 8 2 12 -10 13 -15 0 -15 2 4 11
24 12 41 53 17 44 -8 -3 -14 -1 -14 4 0 6 5 10 10 10 6 0 10 5 10 11 0 5 -4 8
-9 5 -5 -3 -11 3 -14 14 -4 14 0 20 11 20 14 0 15 2 2 9 -18 12 -33 3 -26 -15
9 -23 -15 -16 -43 14 -14 15 -23 23 -18 18 11 -15 9 -36 -4 -36 -5 0 -7 5 -3
12 5 8 0 9 -15 5 -18 -4 -20 -3 -11 8 8 9 8 15 0 20 -6 4 -10 3 -9 -2z"/>
<path d="M13744 4506 c-10 -27 2 -43 14 -19 8 14 9 24 2 28 -6 3 -13 -1 -16
-9z"/>
<path d="M14460 4509 c0 -5 5 -7 10 -4 6 3 10 1 10 -4 0 -6 -4 -11 -10 -11 -5
0 -10 -9 -10 -20 0 -14 5 -18 16 -13 13 5 13 7 2 14 -10 7 -10 9 0 9 6 0 12 9
12 20 0 11 -7 20 -15 20 -8 0 -15 -5 -15 -11z"/>
<path d="M13645 4480 c-3 -6 1 -7 9 -4 18 7 21 14 7 14 -6 0 -13 -4 -16 -10z"/>
<path d="M13844 4476 c-5 -12 -10 -13 -26 -5 -15 8 -19 8 -14 0 4 -6 2 -11 -4
-11 -6 0 -18 -6 -26 -14 -11 -11 -11 -16 -1 -19 9 -4 9 -6 0 -6 -7 -1 -13 -6
-13 -12 0 -5 4 -8 9 -4 20 12 22 -18 3 -36 -21 -18 -21 -18 -25 14 -3 27 -4
26 -5 -10 -1 -24 -7 -43 -13 -43 -5 0 -7 4 -4 10 3 6 -1 7 -10 3 -9 -3 -13 -9
-8 -12 11 -8 11 -27 -1 -38 -5 -5 -6 -3 -2 5 4 7 1 12 -7 12 -8 0 -17 8 -19
18 -3 10 -13 19 -21 19 -12 0 -14 -4 -6 -13 7 -8 6 -14 -3 -17 -10 -4 -10 -8
1 -15 8 -6 21 -8 29 -4 11 4 14 1 9 -11 -3 -9 -2 -17 4 -17 6 0 8 -4 5 -9 -6
-9 22 -26 37 -22 4 1 3 -8 -3 -19 -8 -15 -8 -20 2 -20 9 0 9 -3 -2 -11 -12 -8
-9 -10 12 -6 24 4 26 2 17 -14 -5 -11 -8 -19 -5 -19 7 0 149 263 149 276 0 7
3 11 7 9 4 -2 13 8 19 23 10 22 10 25 0 15 -7 -7 -16 -13 -21 -13 -4 0 -6 6
-4 13 1 6 1 9 -2 4 -2 -4 -13 -12 -24 -18 -18 -10 -20 -9 -15 5 3 8 2 18 -4
21 -5 4 -12 -1 -15 -9z"/>
<path d="M14398 4446 c-3 -14 -1 -31 4 -38 7 -9 8 -8 4 5 -3 10 0 20 9 23 7 3
11 12 8 20 -8 22 -20 17 -25 -10z"/>
<path d="M13660 4429 c0 -26 3 -30 23 -28 12 2 28 0 34 -4 8 -5 11 -3 8 5 -3
7 -15 20 -28 27 -20 13 -21 13 -8 -2 8 -10 9 -17 3 -17 -18 0 -24 20 -12 35
10 12 9 15 -4 15 -11 0 -16 -9 -16 -31z"/>
<path d="M13613 4443 c-7 -2 -13 -13 -13 -24 0 -12 5 -16 14 -13 8 3 14 14 13
25 -1 10 -1 19 -2 18 0 0 -6 -3 -12 -6z"/>
<path d="M13546 4385 c-16 -12 -17 -17 -6 -30 15 -18 36 -20 46 -3 4 6 3 8 -3
5 -12 -8 -26 20 -17 34 7 12 2 11 -20 -6z"/>
<path d="M13500 4380 c-9 -6 -10 -10 -3 -10 6 0 15 5 18 10 8 12 4 12 -15 0z"/>
<path d="M13585 4380 c-3 -6 1 -7 9 -4 18 7 21 14 7 14 -6 0 -13 -4 -16 -10z"/>
<path d="M13666 4379 c-15 -9 -16 -13 -5 -20 21 -13 25 -11 26 11 1 11 1 20 0
20 -1 0 -10 -5 -21 -11z"/>
<path d="M13591 4337 c-9 -15 -10 -18 -1 -10 7 6 20 9 29 6 9 -3 12 -1 6 4 -5
4 -12 11 -15 15 -3 4 -12 -3 -19 -15z"/>
<path d="M14902 4120 c3 -8 -1 -19 -8 -25 -10 -8 -9 -13 4 -25 14 -13 15 -12
9 4 -5 11 -3 16 5 14 21 -7 19 -24 -6 -36 -16 -7 -27 -7 -34 0 -6 6 -15 7 -21
4 -15 -10 -14 -36 1 -36 21 0 -7 -21 -31 -23 -25 -2 -29 -17 -3 -17 15 -1 15
-2 -2 -15 -11 -8 -15 -15 -9 -15 5 0 18 9 27 19 14 16 21 17 31 8 8 -7 10 -16
4 -23 -5 -6 -6 -14 -2 -17 3 -4 1 -7 -5 -7 -7 0 -12 4 -12 9 0 10 -38 3 -44
-8 -5 -8 81 -7 124 2 35 8 35 8 10 -7 -14 -9 -33 -15 -42 -16 -21 0 -24 -16
-5 -23 9 -3 9 -9 -1 -27 -8 -13 -9 -19 -2 -15 15 9 40 -13 34 -29 -6 -15 23
-30 31 -16 3 5 -4 18 -16 29 -12 11 -18 24 -14 32 6 8 4 10 -5 4 -8 -5 -11 -3
-8 6 3 8 12 15 21 17 12 3 15 -1 10 -14 -4 -12 -3 -15 5 -10 7 4 12 2 12 -3 0
-6 7 -11 15 -11 8 0 15 5 15 11 0 5 -5 7 -12 3 -7 -4 -8 -3 -4 4 4 7 2 12 -4
12 -6 0 -8 5 -5 10 4 7 14 3 25 -10 11 -12 23 -19 29 -16 5 4 13 1 17 -5 4 -8
3 -9 -4 -5 -7 4 -12 1 -12 -9 0 -9 4 -14 9 -11 13 8 34 -21 25 -36 -5 -10 -4
-10 6 -1 11 10 16 9 27 -5 12 -15 13 -14 2 8 -7 14 -46 86 -87 160 -74 134
-108 189 -100 160z m-32 -80 c0 -5 -2 -10 -4 -10 -3 0 -8 5 -11 10 -3 6 -1 10
4 10 6 0 11 -4 11 -10z m70 -62 c0 -4 -4 -8 -9 -8 -6 0 -12 4 -15 8 -3 5 1 9
9 9 8 0 15 -4 15 -9z m-40 -32 c0 -11 -19 -15 -25 -6 -3 5 1 10 9 10 9 0 16
-2 16 -4z"/>
<path d="M14663 4037 c4 -10 2 -17 -5 -17 -6 0 -9 -3 -5 -6 3 -3 12 -2 20 3
13 7 13 10 -1 23 -14 13 -15 12 -9 -3z"/>
<path d="M14815 4020 c-3 -5 -1 -10 4 -10 6 0 11 5 11 10 0 6 -2 10 -4 10 -3
0 -8 -4 -11 -10z"/>
<path d="M14605 4000 c-3 -6 1 -7 9 -4 18 7 21 14 7 14 -6 0 -13 -4 -16 -10z"/>
<path d="M14693 4003 c-24 -9 -14 -33 12 -31 14 1 25 5 25 9 0 12 -25 26 -37
22z"/>
<path d="M14763 4003 c-13 -2 -23 -8 -23 -13 0 -10 38 -1 46 11 3 5 4 8 2 8
-2 -1 -13 -4 -25 -6z"/>
<path d="M14534 3965 c2 -14 -1 -22 -7 -18 -6 3 -8 2 -5 -3 108 -200 183 -323
189 -313 4 7 22 13 41 13 27 1 34 5 36 25 2 15 0 21 -7 17 -6 -4 -11 -2 -11 3
0 6 5 11 10 11 6 0 10 4 10 10 0 5 -7 7 -16 3 -10 -4 -14 -14 -11 -29 2 -13 1
-24 -2 -24 -10 0 -33 41 -27 48 3 3 6 -1 6 -9 1 -10 4 -9 11 4 6 10 22 22 36
28 22 8 23 12 12 25 -12 14 -14 14 -20 -3 -4 -10 -8 -12 -8 -5 -1 6 -8 12 -17
12 -8 0 -12 4 -9 10 3 6 -1 7 -9 4 -23 -9 -20 9 4 24 22 13 17 44 -6 35 -8 -3
-14 -9 -14 -15 0 -5 5 -6 10 -3 6 3 10 2 10 -3 0 -18 -28 -21 -42 -4 -9 11
-10 14 0 8 8 -5 12 1 13 18 2 46 4 49 19 53 10 3 11 2 4 -4 -9 -6 -8 -11 1
-20 10 -9 14 -8 18 9 6 20 34 20 30 0 -2 -6 4 -9 11 -6 8 3 12 12 9 20 -3 8 0
14 7 14 8 0 11 -9 8 -25 -6 -29 0 -31 28 -10 10 9 13 14 5 13 -7 -2 -15 2 -18
9 -3 7 3 9 16 6 13 -3 21 -1 21 6 0 7 -4 9 -10 6 -5 -3 -10 -1 -10 5 0 8 -9
10 -27 6 -17 -5 -29 -3 -34 6 -7 10 -9 9 -9 -4 0 -10 -5 -18 -12 -18 -6 0 -8
3 -5 7 8 8 -11 33 -25 33 -6 0 -5 -7 2 -15 10 -13 9 -15 -9 -15 -14 0 -20 4
-15 12 5 8 1 9 -12 5 -14 -6 -13 -2 6 14 l25 21 -27 -6 c-17 -4 -28 -2 -28 4
0 7 -9 9 -22 5 -22 -7 -22 -7 -3 8 18 14 18 15 -10 12 -17 -2 -39 -6 -49 -11
-14 -5 -17 -4 -11 6 5 8 3 11 -6 8 -8 -3 -13 -11 -11 -17 1 -7 -2 -10 -8 -6
-6 3 -8 11 -5 16 4 5 0 9 -9 9 -9 0 -13 -8 -12 -25z m162 -123 c-4 -3 -12 0
-19 8 -9 10 -9 11 1 6 6 -4 12 -2 12 3 0 6 -6 11 -12 11 -9 0 -8 4 2 10 11 7
16 5 18 -11 2 -11 1 -23 -2 -27z m-39 22 c-3 -3 -12 -4 -19 -1 -8 3 -5 6 6 6
11 1 17 -2 13 -5z"/>
<path d="M13160 3949 c0 -5 5 -7 10 -4 6 3 10 8 10 11 0 2 -4 4 -10 4 -5 0
-10 -5 -10 -11z"/>
<path d="M13184 3896 c5 -13 2 -17 -9 -12 -9 3 -19 -3 -26 -15 -10 -20 -9 -20
19 -5 16 8 33 12 37 8 5 -4 4 -1 0 7 -6 11 -4 13 8 8 9 -3 19 -2 22 2 2 5 -4
11 -15 14 -11 3 -20 0 -20 -6 0 -7 -5 -6 -11 3 -9 12 -10 12 -5 -4z"/>
<path d="M13106 3849 c-16 -29 -24 -49 -17 -45 22 14 11 -6 -19 -34 -16 -15
-30 -36 -30 -47 0 -15 2 -16 10 -3 8 13 10 12 10 -2 0 -10 -5 -18 -12 -18 -9
0 -9 -3 0 -12 15 -15 16 -31 0 -22 -7 4 -8 3 -4 -5 9 -13 27 -5 25 12 -4 33 2
37 22 18 12 -11 27 -17 35 -14 8 3 14 -1 14 -8 0 -8 6 -5 15 7 18 24 19 38 3
28 -10 -5 -10 -3 0 7 10 11 14 11 21 1 4 -7 14 -11 22 -9 8 2 11 2 7 0 -14 -8
-8 -25 6 -20 10 4 13 1 9 -9 -3 -10 0 -12 10 -8 9 3 14 15 12 30 -1 13 2 27 6
30 5 3 9 -2 9 -11 0 -12 5 -15 16 -11 9 3 20 6 25 6 20 0 7 36 -16 47 -19 9
-25 8 -25 -1 0 -7 -11 -18 -25 -24 -32 -15 -35 -15 -35 -1 0 5 4 8 9 4 5 -3
12 -2 15 3 7 12 -36 13 -50 1 -9 -7 -20 -7 -36 2 -13 7 -25 12 -28 12 -3 -1
-4 3 -3 8 2 4 -5 5 -14 2 -11 -4 -13 -8 -5 -11 20 -6 13 -20 -8 -15 -26 7 -26
10 11 44 19 18 28 33 23 41 -6 10 -4 10 8 0 12 -10 18 -10 23 -1 4 6 1 15 -6
20 -11 7 -12 12 -1 29 14 23 15 30 5 30 -5 0 -21 -23 -37 -51z m31 -141 c-3
-8 -6 -5 -6 6 -1 11 2 17 5 13 3 -3 4 -12 1 -19z m-17 -8 c0 -5 -5 -10 -11
-10 -5 0 -7 5 -4 10 3 6 8 10 11 10 2 0 4 -4 4 -10z"/>
<path d="M13160 3830 c0 -11 4 -20 9 -20 5 0 7 9 4 20 -3 11 -7 20 -9 20 -2 0
-4 -9 -4 -20z"/>
<path d="M13340 3829 c0 -11 4 -18 10 -14 5 3 7 12 3 20 -7 21 -13 19 -13 -6z"/>
<path d="M14781 3828 c0 -13 3 -17 6 -10 2 6 10 9 16 5 7 -4 6 1 -2 10 -18 22
-21 21 -20 -5z"/>
<path d="M14856 3842 c-2 -4 -1 -14 5 -22 7 -12 9 -10 9 8 0 23 -5 28 -14 14z"/>
<path d="M14980 3832 c0 -5 7 -9 15 -9 8 0 15 4 15 9 0 4 -7 8 -15 8 -8 0 -15
-4 -15 -8z"/>
<path d="M13122 3785 c2 -21 28 -25 28 -4 0 5 1 12 3 16 1 3 -6 7 -15 9 -13 1
-17 -4 -16 -21z"/>
<path d="M13173 3786 c-18 -21 -18 -21 3 -3 22 18 23 18 50 -10 15 -15 22 -21
15 -12 -6 9 -10 22 -9 29 5 21 -41 18 -59 -4z"/>
<path d="M13294 3802 c-9 -5 -8 -11 2 -20 12 -11 14 -9 14 8 0 22 0 23 -16 12z"/>
<path d="M13464 3795 c3 -8 1 -15 -5 -15 -6 0 -8 -4 -4 -9 3 -6 -4 -8 -15 -6
-11 2 -27 -3 -35 -11 -11 -12 -15 -12 -15 -2 0 10 -3 9 -10 -2 -8 -13 -14 -8
-12 11 1 3 -6 6 -14 6 -7 0 -14 -6 -14 -14 0 -7 -4 -13 -10 -13 -5 0 -10 -4
-10 -10 0 -5 6 -7 13 -4 10 4 12 -3 9 -27 -4 -29 -3 -30 16 -20 31 16 40 13
14 -5 -12 -8 -31 -17 -42 -19 -11 -2 -26 -7 -33 -11 -8 -5 -8 -2 2 9 12 15 11
17 -7 17 -11 0 -23 6 -25 13 -4 9 -6 9 -6 -1 -1 -19 -24 -39 -39 -34 -11 3
-16 -10 -13 -30 0 -5 -6 -8 -16 -8 -9 0 -13 -3 -10 -7 4 -3 2 -12 -4 -20 -9
-9 -8 -13 0 -13 6 0 11 5 11 11 0 5 5 7 12 3 7 -4 8 -3 4 5 -4 6 0 14 9 17 14
6 14 9 3 16 -9 7 -7 8 10 5 12 -3 20 -2 17 3 -3 4 2 11 11 14 11 4 18 -1 21
-14 3 -11 10 -20 15 -20 5 0 7 4 4 9 -3 5 4 11 17 15 12 3 23 2 25 -2 1 -5 16
-7 33 -6 29 2 33 -8 5 -12 -7 -1 -23 -5 -35 -9 -17 -5 -20 -3 -15 12 5 15 3
15 -13 -3 -15 -16 -24 -19 -36 -12 -22 12 -37 2 -37 -23 0 -12 4 -17 11 -13 8
5 10 -6 7 -35 -4 -44 2 -50 23 -25 10 12 10 17 0 23 -9 6 -8 11 5 22 16 12 17
12 11 -3 -3 -10 -2 -18 3 -18 5 0 7 -7 4 -15 -6 -13 6 -20 29 -16 4 0 7 -7 7
-16 1 -17 1 -17 14 0 20 25 27 21 15 -10 -19 -52 8 -8 104 164 53 97 87 167
77 160 -10 -6 -16 -15 -14 -19 5 -7 -3 -10 -23 -7 -5 1 -7 5 -5 11 1 5 -2 7
-8 3 -5 -3 -10 -2 -10 3 0 6 -7 13 -16 16 -12 4 -15 2 -10 -9z m-47 -78 c0 -8
-6 -14 -14 -14 -17 0 -17 14 0 20 6 3 12 6 13 6 0 1 1 -5 1 -12z m-37 -11 c0
-2 -7 -6 -15 -10 -8 -3 -15 -1 -15 4 0 6 7 10 15 10 8 0 15 -2 15 -4z"/>
<path d="M14860 3753 c0 -11 7 -20 15 -20 8 0 15 4 15 7 0 4 -7 13 -15 20 -12
10 -15 9 -15 -7z"/>
<path d="M14820 3750 c0 -5 6 -10 13 -10 8 0 7 -4 -3 -11 -12 -8 -12 -10 -1
-7 19 5 23 38 5 38 -8 0 -14 -4 -14 -10z"/>
<path d="M13320 3700 c0 -5 -6 -7 -14 -4 -8 3 -17 0 -22 -7 -4 -8 -3 -10 5 -5
6 4 17 3 24 -3 10 -7 13 -5 14 10 1 10 0 19 -3 19 -2 0 -4 -4 -4 -10z"/>
<path d="M13017 3687 c-3 -8 -1 -20 4 -28 6 -10 9 -7 9 14 0 29 -5 35 -13 14z"/>
<path d="M14860 3674 c0 -16 -2 -17 -10 -4 -6 9 -10 10 -10 3 0 -19 20 -26 26
-8 4 9 4 19 0 22 -3 4 -6 -2 -6 -13z"/>
<path d="M13163 3665 c1 -11 -4 -20 -10 -20 -14 0 -17 -9 -10 -28 4 -9 6 -9 6
1 1 7 6 10 13 6 7 -4 8 -3 4 4 -4 7 -3 12 1 12 5 0 18 7 29 16 19 15 18 15 -3
11 -12 -3 -24 0 -27 7 -3 6 -4 2 -3 -9z"/>
<path d="M14808 3663 c7 -3 16 -2 19 1 4 3 -2 6 -13 5 -11 0 -14 -3 -6 -6z"/>
<path d="M13072 3621 c-11 -6 -10 -10 0 -19 11 -8 14 -7 14 9 0 10 0 19 -1 19
0 0 -6 -4 -13 -9z"/>
<path d="M13106 3598 c3 -5 10 -6 15 -3 13 9 11 12 -6 12 -8 0 -12 -4 -9 -9z"/>
<path d="M15050 3560 c-9 -6 -10 -10 -3 -10 6 0 15 5 18 10 8 12 4 12 -15 0z"/>
<path d="M15222 3490 c-7 -11 -8 -20 -3 -20 9 0 24 30 18 36 -1 2 -8 -6 -15
-16z"/>
<path d="M15264 3473 c4 -8 2 -13 -6 -14 -7 0 -4 -4 7 -9 19 -8 19 -9 -2 -9
-13 -1 -23 -6 -23 -12 0 -5 5 -7 10 -4 6 3 10 -4 10 -16 0 -19 -2 -20 -17 -8
-11 10 -14 10 -9 2 4 -7 2 -13 -3 -13 -6 0 -11 -5 -11 -10 0 -10 50 -3 60 9
11 13 29 10 24 -4 -4 -8 -11 -12 -18 -8 -6 4 -6 0 2 -9 10 -13 10 -17 0 -22
-7 -3 -1 -4 14 -1 22 4 26 2 22 -10 -3 -8 -11 -12 -17 -8 -5 3 -7 1 -3 -5 3
-6 2 -13 -4 -17 -5 -3 -10 1 -10 9 0 9 -4 16 -10 16 -5 0 -10 10 -10 22 0 16
-3 19 -11 11 -6 -6 -17 -10 -23 -9 -6 2 -8 1 -4 -1 4 -3 10 -3 12 -1 3 2 12
-6 20 -17 11 -15 11 -22 3 -27 -9 -6 -8 -8 1 -8 8 0 10 -5 6 -12 -5 -8 -2 -9
9 -5 10 3 17 2 17 -3 0 -5 -9 -11 -20 -15 -11 -3 -19 -9 -19 -13 3 -18 -3 -46
-7 -35 -7 16 -34 5 -34 -13 0 -8 -5 -14 -11 -14 -5 0 -8 -4 -4 -9 6 -10 -25
-31 -44 -31 -17 0 -13 21 7 36 16 13 16 13 0 14 -10 0 -18 8 -18 18 0 14 2 15
10 2 7 -12 9 -11 8 6 -1 11 -8 21 -15 21 -6 0 -10 -4 -7 -8 2 -4 -5 -13 -16
-19 -11 -6 -20 -7 -20 -3 0 4 -5 1 -10 -7 -8 -13 -10 -12 -10 3 0 10 -4 15
-10 12 -5 -3 -10 1 -10 10 0 9 -4 14 -9 10 -5 -3 -12 3 -14 12 -4 15 -5 16 -6
2 0 -9 -8 -20 -17 -23 -12 -4 -15 -2 -10 9 3 10 -1 15 -13 15 -11 0 -21 -6
-24 -12 -3 -10 -7 -10 -19 0 -11 9 -18 10 -23 2 -3 -6 -12 -7 -18 -3 -7 4 -5
-4 4 -17 9 -14 55 -95 102 -181 52 -94 93 -156 102 -156 8 0 15 6 15 14 0 7 9
13 21 13 14 0 19 5 16 14 -3 8 1 17 9 20 8 3 14 1 14 -4 0 -6 9 -10 20 -10 11
0 20 -4 20 -10 0 -5 8 -6 17 -3 11 4 13 8 5 11 -7 2 -9 8 -6 13 3 6 -5 8 -20
5 -17 -3 -26 0 -26 9 0 8 7 11 20 8 15 -4 20 0 20 13 0 13 3 15 8 6 6 -8 13
-1 22 23 l14 35 17 -26 c10 -16 19 -22 23 -15 4 6 1 14 -7 17 -21 8 0 61 27
69 13 4 16 8 9 12 -16 6 -17 53 -2 53 5 0 7 5 4 10 -3 6 1 10 9 10 9 0 16 5
16 11 0 5 -5 7 -12 3 -7 -5 -8 -3 -3 6 6 10 2 12 -16 8 -18 -3 -25 0 -25 13 0
14 13 17 36 9 3 -1 9 -2 13 -1 5 1 6 -3 3 -8 -4 -5 -2 -12 4 -16 5 -3 10 -15
10 -27 0 -18 2 -19 17 -7 15 12 16 12 9 -6 -5 -15 -4 -17 5 -8 9 9 3 27 -25
77 -31 55 -41 66 -64 67 -15 0 -21 3 -14 6 6 2 10 9 6 14 -3 5 0 9 6 9 11 0
-51 124 -73 145 -7 7 -8 6 -3 -2z m73 -203 c1 -11 -2 -18 -8 -15 -11 7 -12 35
-1 35 4 0 8 -9 9 -20z m-37 -20 c0 -5 -4 -10 -10 -10 -5 0 -10 5 -10 10 0 6 5
10 10 10 6 0 10 -4 10 -10z m-353 -15 c0 -8 -4 -12 -9 -9 -5 3 -6 10 -3 15 9
13 12 11 12 -6z m183 -45 c-10 -7 -11 -10 -2 -10 7 0 12 -14 11 -37 -1 -21 -4
-29 -6 -19 -4 15 -7 16 -14 5 -6 -10 -9 -3 -9 22 0 33 17 65 29 53 3 -3 -1 -9
-9 -14z m-50 -16 c0 -8 -5 -12 -10 -9 -6 4 -8 11 -5 16 9 14 15 11 15 -7z
m245 0 c17 -4 20 -12 17 -40 -4 -34 -15 -43 -27 -24 -4 6 -11 8 -16 5 -5 -4
-9 -1 -9 5 0 7 7 10 15 7 8 -4 17 -2 20 3 4 6 1 10 -4 10 -6 0 -11 6 -11 14 0
12 -7 13 -32 5 -46 -13 -57 -11 -28 6 27 16 44 18 75 9z m-105 -28 c0 -2 -7
-6 -15 -10 -8 -3 -15 -1 -15 4 0 6 7 10 15 10 8 0 15 -2 15 -4z m-5 -86 c-3
-5 -12 -10 -18 -10 -7 0 -6 4 3 10 19 12 23 12 15 0z"/>
<path d="M15213 3323 c-7 -3 -12 -14 -12 -26 1 -17 2 -18 6 -4 4 16 6 15 23
-5 l19 -23 1 35 c0 23 -3 31 -9 21 -5 -7 -10 -9 -12 -4 -2 6 -10 8 -16 6z"/>
<path d="M12897 3244 c-9 -9 4 -35 14 -28 5 3 9 -6 9 -20 0 -14 5 -26 10 -26
6 0 9 6 8 12 -2 7 7 14 20 16 12 2 22 -1 22 -6 0 -5 7 -9 16 -9 15 0 15 1 0
12 -8 7 -13 15 -9 18 3 4 -5 4 -18 2 -27 -6 -71 13 -63 27 6 9 0 11 -9 2z"/>
<path d="M15203 3242 c-15 -2 -23 -10 -23 -23 0 -25 22 -24 38 2 16 24 14 26
-15 21z"/>
<path d="M13025 3190 c-3 -5 1 -10 10 -10 9 0 13 5 10 10 -3 6 -8 10 -10 10
-2 0 -7 -4 -10 -10z"/>
<path d="M15171 3176 c-10 -12 -8 -13 8 -9 12 3 18 9 15 14 -7 12 -10 11 -23
-5z"/>
<path d="M15381 3154 c0 -11 3 -14 6 -6 3 7 2 16 -1 19 -3 4 -6 -2 -5 -13z"/>
<path d="M13173 3125 c0 -8 4 -12 9 -9 4 3 8 9 8 15 0 5 -4 9 -8 9 -5 0 -9 -7
-9 -15z"/>
<path d="M15375 3080 c-4 -6 -11 -7 -17 -4 -7 4 -8 2 -4 -5 6 -9 11 -9 22 0
14 11 18 19 10 19 -3 0 -8 -5 -11 -10z"/>
<path d="M15208 2913 c7 -3 16 -2 19 1 4 3 -2 6 -13 5 -11 0 -14 -3 -6 -6z"/>
<path d="M15265 2623 c14 -29 27 -53 30 -53 8 0 2 71 -7 76 -4 3 -8 0 -8 -7 0
-6 -9 -1 -20 12 -18 20 -17 16 5 -28z"/>
</g>
</svg>
